<svg width="120" height="120" viewBox="0 0 120 120" fill="none" xmlns="http://www.w3.org/2000/svg">
<path d="M44.9299 23.7422C42.5862 24.7266 33.5158 28.5 28.4533 38.2734C27.3752 40.3594 22.3127 50.1328 26.0393 58.7578C30.9846 70.1953 46.0315 67.4062 52.9455 78.1641C58.8752 87.4219 46.5705 96.5156 51.8674 107.531C54.633 113.273 61.008 118.078 66.8908 118.523C85.2893 119.906 118.336 80.2734 104.906 49.1719C95.1096 26.5781 63.8908 15.8437 44.9299 23.7422Z" fill="url(#paint0_linear)"/>
<path d="M82.4298 41.5078L48.5626 28.9453C47.5314 28.5703 46.4064 29.0859 46.0314 30.1172L23.1564 91.6875C22.7814 92.7187 23.297 93.8437 24.3282 94.2187L58.1954 106.781C59.2267 107.156 60.3517 106.641 60.7267 105.609L83.6017 44.0156C83.9767 43.0078 83.461 41.8828 82.4298 41.5078Z" fill="#2D548D"/>
<path opacity="0.09" d="M62.133 73.0546C61.2893 73.0546 60.4221 73.0312 59.5314 72.9843C46.383 72.2578 35.6486 66.3984 30.8205 57.3281C23.1096 42.8437 30.6799 22.664 42.2814 16.3125C48.1408 13.0781 53.2268 13.1718 56.4611 13.8281C61.9924 14.9297 66.0705 17.4843 67.9455 21C69.9611 24.7734 68.883 28.3125 67.7346 32.039C66.7033 35.3906 65.6486 38.8359 66.9143 42.5625C68.0393 45.8906 70.9689 46.9218 74.0861 48.0234C77.2502 49.1484 80.5314 50.2968 82.2893 53.9296C84.1408 57.7734 83.9064 63.0234 81.7736 66.1875C78.8674 70.4062 71.1799 73.0546 62.133 73.0546ZM52.8049 13.7343C49.9221 13.7343 46.3361 14.3906 42.4221 16.5468C30.9377 22.8515 23.4377 42.8671 31.0783 57.2109C35.8596 66.2109 46.5236 71.9999 59.5783 72.7265C69.6096 73.289 78.4455 70.5937 81.5627 66.0468C83.6486 62.9765 83.883 57.8203 82.0549 54.0703C80.3439 50.5312 77.133 49.4062 74.0158 48.3046C70.8518 47.1796 67.8518 46.125 66.6799 42.6796C65.3908 38.8593 66.4689 35.3671 67.5002 31.9687C68.6252 28.289 69.7033 24.7968 67.7346 21.1172C65.9064 17.6718 61.8752 15.164 56.4377 14.0859C55.383 13.875 54.1643 13.7343 52.8049 13.7343Z" fill="#AAAAD5"/>
<path opacity="0.2" d="M74.2266 38.4609L70.4766 40.9687L37.7344 62.9531L32.5547 66.4453L39.6797 47.2031L44.8828 43.7109L56.625 35.8125L60.375 33.3047L74.2266 38.4609Z" fill="#EEEDF3"/>
<path opacity="0.2" d="M81.6797 41.2266L77.9297 43.7344L33.8906 73.3125L28.6875 76.7812L31.2187 70.0078L36.3984 66.5391V66.5156L73.0547 41.9297L76.8047 39.3984L81.6797 41.2266Z" fill="#EEEDF3"/>
<path d="M82.4297 41.5078L81.6797 41.2265L76.8047 39.4219L74.2266 38.4609L60.375 33.3281L48.5625 28.9453C47.5547 28.5703 46.4063 29.0859 46.0313 30.1172L39.6797 47.2265L32.5313 66.4687L31.1953 70.0547L28.6875 76.8281L23.1563 91.7344C23.086 91.9219 23.0625 92.1094 23.0391 92.2969C22.9688 93.1406 23.4844 93.9609 24.3282 94.2656L30.6094 96.6094L35.3438 98.3672L47.8594 103.008L52.4297 104.695L58.1953 106.828C59.2032 107.203 60.3516 106.687 60.7266 105.68L83.1797 45.2109L83.6016 44.0859C83.9766 43.0078 83.461 41.8828 82.4297 41.5078ZM79.2188 45.3281L78.75 46.6172L59.4141 98.7187C59.2032 99.2578 58.5938 99.5625 58.0313 99.3515L53.7891 97.7812L48.6563 95.8828L38.0625 91.9453L33.211 90.1406L29.3438 88.7109C28.9219 88.5469 28.6641 88.1719 28.6641 87.75C28.6641 87.6094 28.6641 87.4687 28.7344 87.3281L33.9375 73.3359L36.4453 66.5625L37.7813 62.9765L44.9297 43.7344L48.5625 33.9609C48.7735 33.4219 49.3828 33.1172 49.9219 33.3281L56.6719 35.8359L70.5235 40.9687L73.1016 41.9297L77.9766 43.7344L78.6094 43.9687C79.1485 44.1797 79.4297 44.789 79.2188 45.3281Z" fill="#EEEDF3"/>
<path d="M40.3122 97.9687C39.3513 97.6172 38.8591 96.539 39.2107 95.5781C39.5622 94.6172 40.6404 94.125 41.6013 94.4766C42.5622 94.8281 43.0544 95.9062 42.7029 96.8672C42.3279 97.8515 41.2497 98.3203 40.3122 97.9687Z" fill="#C9C7D9"/>
<path opacity="0.1" d="M62.9532 5.17965L15.6798 20.8359C14.5313 21.2109 13.922 22.4531 14.297 23.5781L18.8907 37.4062C19.2657 38.5547 20.5079 39.164 21.6329 38.789L26.297 37.2422L28.5704 36.4922C29.1563 36.8672 30.6095 37.8515 31.1954 38.2031C31.7345 38.5078 32.4376 38.2734 32.6954 37.7109C32.9766 37.0781 33.5626 35.4375 33.797 34.7812L45.2813 30.9609L68.9063 23.1328C70.0548 22.7578 70.6641 21.5156 70.2891 20.3906L65.6954 6.56246C65.3204 5.41403 64.1016 4.80465 62.9532 5.17965Z" fill="#3F3F3F"/>
<path d="M62.9529 1.52343L12.2341 18.3281C11.0154 18.7266 10.3591 20.0625 10.7576 21.2812L15.6794 36.1172C16.0779 37.3359 17.4138 37.9922 18.6326 37.5937L23.6247 35.9297L26.0622 35.1328C26.6716 35.5547 28.2419 36.5859 28.8747 36.9609C29.4372 37.2891 30.2107 37.0312 30.4919 36.4219C30.7732 35.7422 31.4294 33.9609 31.6638 33.2812L43.9919 29.2031L69.3513 20.7891C70.5701 20.3906 71.2263 19.0547 70.8279 17.8359L65.906 2.99999C65.5076 1.78124 64.1951 1.12499 62.9529 1.52343Z" fill="url(#paint1_linear)"/>
<path d="M25.0777 25.2891C25.4293 24.6797 25.523 23.9297 25.2886 23.2031L24.8902 22.0078C24.4449 20.6719 23.0386 19.8516 21.6793 20.25C20.273 20.6719 19.523 22.1484 19.9683 23.5312L20.3902 24.8437C20.6246 25.5703 21.1636 26.1094 21.7964 26.3906C20.3433 27.4922 19.4996 29.25 19.6168 31.1016C19.6636 31.8281 20.3902 32.2734 21.0699 32.0625L28.9918 29.4375C29.6714 29.2031 29.9761 28.4062 29.6011 27.7969C28.6168 26.2031 26.9058 25.2891 25.0777 25.2891Z" fill="white"/>
<path d="M44.1561 12.7734L34.0545 16.125C33.2342 16.4062 32.7889 17.2969 33.0467 18.1172L34.6873 23.0859C34.9686 23.9062 35.8592 24.3515 36.6795 24.0937L37.6639 23.7656C37.6639 23.7656 39.5389 25.0312 40.1717 25.4062C40.6404 25.664 41.2733 25.4765 41.4842 24.9609C41.7889 24.2812 42.5389 22.1484 42.5389 22.1484L46.7811 20.7422C47.6014 20.4609 48.0467 19.5703 47.7889 18.75L46.1483 13.7812C45.867 12.9375 44.9764 12.4922 44.1561 12.7734Z" fill="white"/>
<path d="M35.8122 18.4218C35.4841 18.4922 35.1325 18.3281 35.0388 18C34.9216 17.6484 35.1091 17.2734 35.4607 17.1797L43.6638 14.4609C43.9919 14.3437 44.3903 14.5312 44.4841 14.8828C44.6013 15.2343 44.4138 15.6093 44.0622 15.7031L35.8591 18.4218C35.8357 18.4218 35.8357 18.4218 35.8122 18.4218Z" fill="#E2E1E1"/>
<path d="M36.5153 20.5781C36.1872 20.6484 35.8357 20.4843 35.7419 20.1562C35.6247 19.8047 35.8122 19.4297 36.1638 19.3359L44.3669 16.6172C44.695 16.5 45.0935 16.6875 45.1872 17.039C45.3044 17.3906 45.1169 17.7656 44.7653 17.8593L36.5622 20.5781C36.5622 20.5547 36.5388 20.5781 36.5153 20.5781Z" fill="#E2E1E1"/>
<path d="M37.2424 22.7109C36.9143 22.7812 36.5627 22.6171 36.469 22.289C36.3518 21.9375 36.5393 21.5625 36.8908 21.4687L40.594 20.25C40.9221 20.1328 41.2971 20.3203 41.4143 20.6718C41.5315 21.0234 41.344 21.3984 40.9924 21.4921L37.2893 22.7109C37.2658 22.7109 37.2658 22.7109 37.2424 22.7109Z" fill="#E2E1E1"/>
<path d="M65.2032 15.1172C64.8751 14.1093 64.2188 13.2656 63.4219 12.7031L63.0704 11.625C62.461 9.82028 60.6797 8.76559 58.8516 9.0234L58.7579 8.71872C58.6407 8.36715 58.2657 8.17965 57.9141 8.29684C57.5625 8.41403 57.375 8.78903 57.4922 9.14059L57.586 9.44528C55.9688 10.3125 55.1719 12.2343 55.7579 14.039L56.1094 15.1172C55.8047 16.0547 55.7813 17.1093 56.1094 18.1172L56.2735 18.5859C56.3438 18.8203 56.6016 18.9609 56.836 18.8672L58.6407 18.2578C58.6641 18.3984 58.7344 18.539 58.8985 18.5859C59.6485 18.8437 60.4922 18.8437 61.3125 18.5859C62.1329 18.3281 62.7891 17.8125 63.2579 17.1562C63.3516 17.0156 63.3516 16.8515 63.2813 16.7343L65.086 16.125C65.3204 16.0547 65.461 15.7968 65.3672 15.5625L65.2032 15.1172Z" fill="white"/>
<path d="M57.5153 18.0938C57.8669 19.1484 57.2809 20.3203 56.2262 20.6719C55.1715 21.0234 53.9997 20.4375 53.6481 19.3828C53.2965 18.3281 53.8825 17.1563 54.9372 16.8047C56.0153 16.4531 57.1637 17.0156 57.5153 18.0938Z" fill="#E83C3B"/>
<path opacity="0.1" d="M113.953 45L100.992 43.4531C100.429 43.3828 99.9372 43.7812 99.8669 44.3437L98.3201 57.3047C98.2497 57.8672 98.6482 58.3594 99.2107 58.4297L112.172 59.9766C112.734 60.0469 113.226 59.6484 113.297 59.0859L114.843 46.125C114.914 45.5859 114.515 45.0703 113.953 45Z" fill="#3F3F3F"/>
<path d="M115.476 58.1719L100.335 56.3672C100.078 56.3438 99.89 56.1094 99.9369 55.8516L101.742 40.7109C101.765 40.4531 101.999 40.2656 102.257 40.3125L117.398 42.1172C117.656 42.1406 117.843 42.375 117.796 42.6328L115.992 57.7734C115.968 58.0078 115.734 58.1953 115.476 58.1719Z" fill="#F8AA09"/>
<path d="M101.554 54.7031L103.054 42.1641C103.078 42 103.218 41.9062 103.359 41.9062L115.898 43.4062C116.062 43.4297 116.156 43.5703 116.156 43.7109L114.656 56.25C114.632 56.4141 114.492 56.5078 114.351 56.5078L101.812 55.0078C101.648 55.0078 101.554 54.8672 101.554 54.7031Z" fill="#FBBA38"/>
<path d="M109.171 50.2969L107.718 51.4453C107.46 51.6563 107.062 51.6094 106.851 51.3516C106.64 51.0938 106.265 51.0469 105.984 51.2578L103.851 52.9453C103.429 53.2735 103.616 53.9766 104.155 54.0469L104.413 54.0703L109.452 54.6797L112.288 55.0078C112.827 55.0782 113.179 54.4453 112.851 54.0235L110.038 50.3907C109.827 50.1328 109.429 50.086 109.171 50.2969Z" fill="#EE9F05"/>
<path d="M106.57 47.8594C106.499 48.4453 105.96 48.8672 105.374 48.7969C104.788 48.7266 104.367 48.1875 104.437 47.6016C104.507 47.0157 105.046 46.5938 105.632 46.6641C106.218 46.7344 106.64 47.2735 106.57 47.8594Z" fill="#EE9F05"/>
<path opacity="0.1" d="M32.0158 81.7734C31.5236 80.2031 29.8595 79.3359 28.2892 79.8281L9.1642 85.875C7.59388 86.3672 6.7267 88.0313 7.21888 89.6016L11.1564 102.047C11.6486 103.617 13.3126 104.484 14.8829 103.992L16.7579 103.406C16.7579 103.406 20.2501 105.82 21.4689 106.547C22.3361 107.063 23.5314 106.688 23.9533 105.75C24.5392 104.461 25.9923 100.477 25.9923 100.477L34.008 97.9453C35.5783 97.4531 36.4455 95.7891 35.9533 94.2188L32.0158 81.7734Z" fill="#3F3F3F"/>
<path d="M24.9844 76.9922L4.47659 83.4844C2.78909 84.0234 1.87503 85.8047 2.39065 87.4922L6.6094 100.852C7.14846 102.539 8.92971 103.453 10.6172 102.938L12.6094 102.305C12.6094 102.305 16.3594 104.906 17.6485 105.68C18.586 106.242 19.875 105.82 20.3203 104.836C20.9532 103.453 22.5 99.1641 22.5 99.1641L31.1016 96.4453C32.7891 95.9063 33.7032 94.125 33.1875 92.4375L28.9688 79.0781C28.4766 77.3906 26.6719 76.4531 24.9844 76.9922Z" fill="url(#paint2_linear)"/>
<path d="M25.0547 83.9063L8.41404 89.1797C7.87498 89.3438 7.28904 89.0625 7.12498 88.5C6.96092 87.961 7.2656 87.375 7.80467 87.211L24.4453 81.9375C24.9844 81.7735 25.5703 82.0547 25.7344 82.6172C25.8984 83.1563 25.5937 83.7422 25.0547 83.9063Z" fill="#EDB7D5"/>
<path d="M26.5312 88.6172L9.8906 93.8906C9.35154 94.0547 8.7656 93.7735 8.60154 93.211C8.43748 92.6719 8.74217 92.086 9.28123 91.9219L25.9219 86.6485C26.4609 86.4844 27.0469 86.7657 27.2109 87.3282C27.375 87.8438 27.0703 88.4297 26.5312 88.6172Z" fill="#EDB7D5"/>
<path d="M18.8906 96.1875L11.3906 98.5547C10.8515 98.7187 10.2656 98.414 10.1015 97.875C9.93748 97.3359 10.2422 96.75 10.7812 96.5859L18.2812 94.2187C18.8203 94.0547 19.4062 94.3594 19.5703 94.8984C19.7344 95.4375 19.4297 96.0234 18.8906 96.1875Z" fill="#EDB7D5"/>
<path opacity="0.1" d="M66.9141 53.7188C66.6328 52.5235 65.0391 52.2657 64.3828 53.3204L61.7578 57.5626L60.2813 51.3985C59.9766 50.1563 58.7344 49.3829 57.4922 49.6876L40.5469 53.7188C39.3047 54.0235 38.5313 55.2657 38.8359 56.5079L42.8672 73.4532C43.1719 74.6954 44.4141 75.4688 45.6563 75.1641L62.6016 71.1329C63.8438 70.8282 64.6172 69.586 64.3125 68.3438L62.8359 62.1797L67.0781 64.8047C68.1328 65.461 69.4453 64.5001 69.1406 63.3048L66.9141 53.7188Z" fill="#3F3F3F"/>
<path d="M66.3985 48.7031L63.586 53.2735L62.0156 46.6641C61.6875 45.3281 60.3516 44.5078 59.0156 44.8125L40.8281 49.1485C39.4922 49.4766 38.6719 50.8125 38.9766 52.1485L43.3125 70.336C43.6406 71.6719 44.9766 72.4922 46.3125 72.1875L64.5 67.8516C65.836 67.5235 66.6563 66.1875 66.3516 64.8516L64.7813 58.2422L69.3516 61.0547C70.4766 61.7578 71.8828 60.7266 71.5781 59.4375L69.1172 49.1485C68.8125 47.8594 67.1016 47.5781 66.3985 48.7031Z" fill="#E83B5B"/>
<path d="M49.4297 53.6016L56.0859 57.6798L51.9844 64.336" fill="white"/>
<path d="M78.9434 79.969L51.2856 84.3746L53.7742 99.9972L81.4319 95.5916L78.9434 79.969Z" fill="#E83C3B"/>
<path d="M66.3516 90.0001L78.9375 79.9922L51.2812 84.3985L66.3516 90.0001Z" fill="#EE7375"/>
<path d="M84.5625 106.805H100.383C100.852 106.805 101.25 106.406 101.25 105.937C101.25 105.469 100.852 105.07 100.383 105.07H84.5625C84.0937 105.07 83.6953 105.469 83.6953 105.937C83.6953 106.43 84.0703 106.805 84.5625 106.805Z" fill="#E2E2E1"/>
<path d="M89.7891 103.125L89.0391 98.5546L91.1016 97.9218L91.4297 102.797L89.7891 103.125Z" fill="#D7DDE9"/>
<path d="M91.5 102.305C91.6406 102.328 91.7578 102.375 91.875 102.469C92.6016 103.078 94.8281 104.156 95.9531 104.32C97.1719 104.508 97.2422 105.094 95.5078 105.094C93.7969 105.094 92.5312 104.93 91.7812 104.953C91.0078 104.976 91.2187 105.094 89.3437 105.094C87.8906 105.094 88.3594 103.242 88.875 102.398C89.0391 102.141 89.25 102 89.5547 102.023L91.5 102.305Z" fill="#ED9558"/>
<path d="M83.1562 98.8593L86.0156 95.2265L87.8672 96.3281L84.5156 99.8437L83.1562 98.8593Z" fill="#D7DDE9"/>
<path d="M84.9374 99.5625C85.0078 99.6797 85.0781 99.7969 85.0781 99.9375C85.1249 100.875 85.8515 103.312 86.7187 104.086C87.5859 104.883 87.0234 105.07 85.6171 104.414C84.0703 103.687 83.7187 102.117 83.1796 101.578C82.6406 101.039 82.6874 101.25 81.4218 99.8672C80.4374 98.8125 82.1015 97.8984 83.0859 97.6875C83.3906 97.6172 83.6249 97.6875 83.8124 97.9453L84.9374 99.5625Z" fill="#ED9558"/>
<path d="M81.8674 21.6093C81.8674 21.6093 81.3049 25.3593 82.383 27.0937C83.4611 28.8281 83.6252 29.0859 83.6252 29.0859" fill="#ED8C61"/>
<path d="M84.6329 30.75C84.3282 30.9375 83.9767 31.0312 83.6485 31.0312C82.9923 31.0312 82.336 30.7031 81.9845 30.0703C81.961 30.0468 81.7735 29.7187 80.7657 28.125C80.0626 27 79.8282 25.4765 79.8048 24.1406C79.7579 22.8281 79.8985 21.7031 79.9688 21.3281C80.1329 20.2734 81.1173 19.5234 82.1954 19.6875C83.2501 19.8515 84.0001 20.8359 83.836 21.914C83.7423 22.4765 83.7188 23.1328 83.7188 23.7422C83.7188 24.375 83.7657 24.9843 83.8595 25.4297C83.9063 25.6875 83.9767 25.9218 84.0704 26.0625C85.172 27.8203 85.336 28.1015 85.336 28.1015C85.8751 29.0156 85.5704 30.2109 84.6329 30.75Z" fill="#F6AD86"/>
<path d="M77.4376 52.2187C77.836 46.6172 75.961 32.7187 75.0001 27.1875C74.8594 26.3438 75.4923 25.5703 76.3594 25.5703H87.8673C88.4766 25.5703 89.0391 25.9922 89.2032 26.5781C90.5157 31.5937 91.3595 52.1953 91.3595 52.1953H77.4376V52.2187Z" fill="#E8E8E8"/>
<path d="M96.4451 40.5703C96.2576 39.5156 94.9686 36.8203 93.5389 34.0078C92.0154 31.0312 90.3045 27.8906 89.5076 26.4844C89.0623 25.6875 88.0545 25.4062 87.2576 25.8281C86.4607 26.2734 86.1795 27.2812 86.6014 28.0781C87.8201 30.2812 89.0623 32.6015 90.1639 34.6875C91.4061 37.0781 92.6014 38.5312 93.0936 39.7031C92.2029 40.4765 89.9764 40.5469 88.2186 40.4297C87.7264 40.3828 85.8514 40.2422 84.6092 41.3906C84.117 41.8359 83.5545 42.6562 83.6014 43.9453C83.6483 44.8359 83.7654 45.1875 84.5623 45.5859C84.8904 45.75 85.3123 45.7734 85.6639 45.75C86.5779 45.6328 86.6482 45.1406 86.6482 44.0859C86.6482 43.3359 87.0467 42.5859 87.0467 42.5859C87.0467 42.5859 89.7186 43.2422 91.9451 43.5234C94.1717 43.8047 95.0857 43.3594 95.9061 42.4453C96.3748 41.9062 96.5623 41.2266 96.4451 40.5703Z" fill="#F6AD86"/>
<path d="M78.0469 61.2656C78.0469 61.2656 76.3594 58.1719 77.4376 52.2188H91.336C91.336 52.2188 91.5235 56.7422 91.2188 61.2656H78.0469Z" fill="#3A63A9"/>
<path d="M93.5157 34.0078L91.8985 34.3359L90.1641 34.6875C89.086 32.6016 87.8204 30.2578 86.6016 28.0781C86.1563 27.2812 86.461 26.2734 87.2579 25.8281C88.0547 25.3828 89.0626 25.6875 89.5079 26.4844C90.2813 27.8906 91.9922 31.0312 93.5157 34.0078Z" fill="#ED8C61"/>
<path d="M77.8828 26.8828C77.6719 25.9922 76.7578 25.4531 75.8906 25.6875C71.9063 26.6719 69.1406 27.5625 67.2188 28.3828C62.7891 30.2578 62.836 31.6406 62.836 32.3438C62.8594 33.1407 63.0235 34.711 72.5625 38.1797C72.5625 38.461 72.2578 39.5391 72.0703 39.8907C71.625 40.6875 72.0938 41.461 72.5625 42.2344C72.7266 42.4922 73.1016 42.8203 73.5469 42.8203C74.1328 42.8203 74.8594 42.0703 74.9531 41.461C75.3047 39.2344 75.2578 37.9219 75.1406 37.6641C75.1406 37.6407 75.1172 37.6172 75.1172 37.5938C75.0703 37.5235 75.0469 37.4532 75 37.3828C74.9766 37.336 74.9297 37.3125 74.9063 37.2657C74.8594 37.2188 74.836 37.1719 74.7891 37.1485C74.7188 37.0782 74.6485 37.0313 74.5781 36.9844C74.5547 36.9844 74.5547 36.961 74.5313 36.961C74.4141 36.8906 74.2969 36.8203 74.1797 36.7735C70.9453 35.4375 67.9219 33.2813 66.586 32.3438C67.0547 32.086 67.711 31.7578 68.5313 31.4531C70.5703 30.6328 73.5703 29.6719 76.6406 28.9219C77.5547 28.6641 78.0938 27.7735 77.8828 26.8828Z" fill="#F6AD86"/>
<path d="M93.7734 33.2813L91.5468 33.7031L89.8125 34.0313L88.3359 34.3125C86.4375 30.586 85.9922 29.7422 85.9218 28.4766C85.8515 27.0469 86.2265 26.3203 87.164 25.8047C88.1015 25.2891 89.2734 25.6172 89.789 26.5547C89.8359 26.625 91.8515 29.5078 93.7734 33.2813Z" fill="#E8E8E8"/>
<path d="M99.8203 79.6407C99.6094 81 98.8828 82.4766 97.8516 84.2813C96.1172 87.2813 93.4688 90.6329 91.0781 93.4219C89.4141 95.3672 87.8906 97.0547 86.9297 98.2032C86.5078 98.6954 86.1797 99.0938 85.9922 99.3516L84.0234 96.8204C84.75 95.7891 85.4297 94.4063 86.2734 93.1172C86.2969 93.0938 86.3203 93.0469 86.3438 93.0235C87.9375 90.6094 89.6484 87.8907 91.0078 85.4063C91.0547 85.3125 91.1016 85.2422 91.1484 85.1485C92.6016 82.5235 93.6797 80.2032 93.8906 78.8438C94.2656 76.4297 90.6328 68.8829 87.0469 62.2266C86.6484 61.4532 86.2266 60.7032 85.8281 59.9766C85.6875 59.7188 85.6172 59.461 85.5938 59.1797C85.5 57.961 86.3906 56.5547 87.4922 55.9454C88.8281 55.1954 90.5625 54.8204 91.3125 56.1563C92.8359 58.9219 100.734 73.711 99.8203 79.6407Z" fill="#3A63A9"/>
<path d="M91.0781 93.4218C89.4141 95.3671 87.8906 97.0546 86.9297 98.2031C86.7656 96.8437 86.6016 95.3671 86.4375 93.8671C86.4141 93.5859 86.3672 93.2812 86.3438 92.9999C87.9375 90.5859 89.6484 87.8671 91.0078 85.3828C91.1016 87.8437 91.1016 90.7265 91.0781 93.4218Z" fill="#2D548D"/>
<path d="M90.7268 80.3906C90.0471 74.8359 85.383 59.9062 84.6565 58.2656C84.0471 56.8594 80.6721 56.5547 79.2658 57.1875C77.8596 57.7969 77.2268 59.4375 77.8361 60.8437C79.7111 65.1094 85.0315 76.5234 85.5705 80.5547C85.8752 82.9687 86.2971 87.8203 87.0471 91.9687C87.5861 94.8516 88.1252 97.6641 88.5237 99.7031C88.8752 101.484 88.8752 101.156 88.8986 101.32L92.2268 100.805C92.2268 100.805 91.5237 86.9531 90.7268 80.3906Z" fill="#3A63A9"/>
<path d="M76.6641 28.875C73.5938 29.625 70.5937 30.586 68.5547 31.4063L67.1953 28.3594C69.1172 27.5625 71.8828 26.6485 75.8672 25.6641C76.7578 25.4532 77.6484 25.9922 77.8594 26.8594C78.0938 27.7735 77.5547 28.6641 76.6641 28.875Z" fill="#ED8C61"/>
<path d="M75.9141 25.6172C76.9687 25.4532 77.7422 25.9688 78.0234 27C78.3047 28.0313 77.6016 28.8281 76.6641 29.3672C75.5391 30.0235 75.1406 30.1641 70.3828 31.8047L67.7344 28.1485C73.8281 25.7813 74.1328 25.875 75.9141 25.6172Z" fill="#E8E8E8"/>
<path d="M83.836 25.4297C83.7423 25.4297 83.6485 25.4297 83.5782 25.4297C82.1485 25.4297 80.836 24.9609 79.8048 24.1406C79.7579 22.8281 79.8985 21.7031 79.9688 21.3281C80.1329 20.2734 81.1173 19.5234 82.1954 19.6875C83.2501 19.8515 84.0001 20.8359 83.836 21.914C83.7423 22.4765 83.7189 23.1328 83.7189 23.7422C83.672 24.3515 83.7189 24.9609 83.836 25.4297Z" fill="#ED8C61"/>
<path d="M89.3439 18.4922C88.5704 22.0781 86.5783 24.7031 83.1329 24.7031C79.7111 24.7031 77.5548 22.1016 76.922 18.4922C76.3595 15.1172 79.7111 11.8125 83.1329 11.8125C86.6017 11.7891 90.0704 15.1406 89.3439 18.4922Z" fill="#F6AD86"/>
<path d="M89.8125 101.344L89.789 101.25C88.8515 95.4375 87.4218 86.6719 86.7187 81.1406C86.2031 77.1094 81.2109 65.1562 79.3359 60.8906C79.3125 60.8672 79.3125 60.8203 79.3125 60.7969C79.3125 60.7734 79.3125 60.7734 79.289 60.75C78.9843 59.9297 78.0703 56.8828 78.9375 52.0781L79.2187 52.125C78.3515 56.8594 79.2656 59.8359 79.5468 60.6562C79.5468 60.6797 79.5703 60.7031 79.5703 60.7266C79.5703 60.75 79.5703 60.7734 79.5937 60.7969C81.4687 65.0625 86.4609 77.0625 86.9765 81.1172C87.7031 86.625 89.1093 95.4141 90.0468 101.227L90.0703 101.32L89.8125 101.344Z" fill="#658BC1"/>
<path d="M85.3594 25.5938C85.3594 26.4375 85.0312 27.8437 82.8281 27.8437C81.2344 27.8437 79.2187 27.1641 78.4687 25.875L78.3047 25.5938H85.3594V25.5938Z" fill="#C8D6DB"/>
<path d="M78.9609 25.5938C79.5469 26.625 81.3047 27.2812 82.8281 27.2812C84.3516 27.2812 84.7969 26.5312 84.7969 25.5938H78.9609Z" fill="#F6AD86"/>
<path d="M87.3047 42.9141C87.3047 42.8906 87.3984 41.9531 86.4141 40.5938L87.3281 40.0547C88.4766 41.7656 88.3594 42.9844 88.3594 43.0547L87.3047 42.9141Z" fill="#82AACE"/>
<path d="M86.6017 40.0781C87.1173 39.8438 87.797 39.9609 88.1486 40.3359C88.4767 40.7109 88.3361 41.2266 87.797 41.4609C87.2814 41.6953 86.6017 41.5781 86.2501 41.2031C85.922 40.8047 86.0626 40.3125 86.6017 40.0781Z" fill="#4E7DB0"/>
<path d="M89.2034 13.8984C87.3284 10.875 82.7112 10.6406 81.8206 10.6875C81.3518 10.7109 80.3206 10.9922 79.8753 11.6953C79.8518 11.2031 79.8753 10.7578 79.8753 10.7578C79.4768 11.25 79.4065 11.6719 79.4768 12C79.1956 11.625 79.0081 11.2266 79.0081 11.2266C78.9378 11.7422 79.0784 12.0469 79.2893 12.2109C78.0237 12.5156 76.4065 14.2969 76.969 17.9531C77.2034 19.5469 80.8128 18.3281 81.8206 16.7344C82.5003 17.8359 83.8597 18.0703 83.8597 18.0703C83.3909 17.6016 82.969 16.8984 82.6409 16.1953C84.5628 17.3672 87.1175 18.6328 87.4222 19.4063C87.4222 19.4063 87.9847 18.1641 87.5628 17.3672C87.5628 17.3672 89.0862 17.7422 89.2737 19.2656C89.2503 19.2188 91.1956 17.1328 89.2034 13.8984Z" fill="#424344"/>
<path d="M84.7152 52.0706L84.4375 52.1154L85.9553 61.5092L86.2329 61.4644L84.7152 52.0706Z" fill="#658BC1"/>
<path d="M85.8047 59.7187L85.7578 59.4375C85.7578 59.4375 86.3438 59.3437 86.6484 58.8984C86.8359 58.6406 86.8828 58.3125 86.8359 57.9375L85.875 51.9844L86.1563 51.9375L87.1172 57.8906C87.1875 58.3594 87.1172 58.7578 86.8828 59.0625C86.5078 59.625 85.8281 59.7187 85.8047 59.7187Z" fill="#658BC1"/>
<path d="M76.7343 18.1172C76.453 18.7266 76.4999 19.3829 76.7577 19.9454C77.0624 20.6016 78.0233 20.5547 78.3046 19.8985L79.1014 18.1172C79.4061 17.461 78.7967 16.7344 78.0936 16.9219C77.5077 17.1094 76.9921 17.5313 76.7343 18.1172Z" fill="#F6AD86"/>
<defs>
<linearGradient id="paint0_linear" x1="112.314" y1="108.129" x2="-6.59303" y2="-1.10459" gradientUnits="userSpaceOnUse">
<stop stop-color="#6FC7DA"/>
<stop offset="0.3693" stop-color="#0D71B9"/>
<stop offset="0.7613" stop-color="#9E1460"/>
<stop offset="1" stop-color="#E7267A"/>
</linearGradient>
<linearGradient id="paint1_linear" x1="62.2982" y1="42.3722" x2="10.7439" y2="-12.3101" gradientUnits="userSpaceOnUse">
<stop stop-color="#6FC7DA"/>
<stop offset="1" stop-color="#9E1460"/>
</linearGradient>
<linearGradient id="paint2_linear" x1="37.7701" y1="93.0602" x2="8.43933" y2="89.8522" gradientUnits="userSpaceOnUse">
<stop stop-color="#6FC7DA"/>
<stop offset="0.6927" stop-color="#9E1460"/>
<stop offset="1" stop-color="#E7267A"/>
</linearGradient>
</defs>
</svg>
