<svg width="120" height="120" viewBox="0 0 120 120" fill="none" xmlns="http://www.w3.org/2000/svg">
<path d="M6.64667 90.4819L48.4467 114.773C49.3326 115.29 50.7598 115.29 51.6457 114.782L115.159 78.1072C116.045 77.5987 116.045 76.7702 115.159 76.2534L73.3594 51.962C72.4817 51.4534 71.0544 51.4534 70.1685 51.962L6.65488 88.6281C5.76897 89.1449 5.76076 89.9733 6.64667 90.4819Z" fill="#AABAFD"/>
<path d="M56.0415 92.9506C55.542 93.239 55.545 93.7088 56.0412 93.9972L66.3451 99.9851C66.8413 100.274 67.6525 100.277 68.1519 99.9884L88.4568 88.2654C88.9563 87.977 88.9533 87.5072 88.4571 87.2188L78.1532 81.2308C77.6569 80.9424 76.8458 80.9392 76.3464 81.2276L56.0415 92.9506Z" fill="#2E4277"/>
<path d="M5.99023 89.5632L5.99844 92.0083C5.99844 92.3364 6.21989 92.6727 6.65465 92.927L48.4546 117.218C49.3405 117.727 50.7678 117.727 51.6537 117.218L115.167 80.5523C115.61 80.298 115.832 79.9618 115.832 79.6172L115.824 77.1803C115.824 77.5166 115.602 77.8529 115.159 78.1072L51.6455 114.782C50.7596 115.29 49.3323 115.29 48.4464 114.773L6.64644 90.4819C6.20352 90.2276 5.99023 89.8995 5.99023 89.5632Z" fill="#798FFE"/>
<path d="M70.0449 3.59438C70.9299 3.08339 71.6497 3.49358 71.6526 4.5106L71.7659 49.1953C71.7687 50.2063 71.0536 51.451 70.1685 51.962L7.57015 88.0998C6.68507 88.6108 5.96524 88.1946 5.96236 87.1836L5.84913 42.4989C5.84625 41.4819 6.5614 40.2432 7.44647 39.7322L70.0449 3.59438Z" fill="#1B2A4F"/>
<path d="M4.16797 41.5249L4.28281 86.2079C4.28281 86.7083 4.46329 87.0692 4.75038 87.2333L6.42927 88.2096C6.14214 88.0456 5.96171 87.6847 5.96171 87.1842L5.84686 42.5013C5.84686 41.4841 6.56051 40.2455 7.44642 39.7288L70.0451 3.59505C70.4881 3.34077 70.89 3.3162 71.1853 3.48021L69.5064 2.50387C69.2193 2.3398 68.8092 2.36438 68.3663 2.61866L5.76752 38.7606C4.88161 39.2692 4.16797 40.5078 4.16797 41.5249Z" fill="#384E85"/>
<path d="M8.1084 41.9539L8.21733 85.1221L69.5064 49.7403L69.3975 6.57205L8.1084 41.9539Z" fill="#384E85"/>
<path d="M8.1084 41.9539L8.12669 49.1945L69.4158 13.8126L69.3975 6.57205L8.1084 41.9539Z" fill="#AABAFD"/>
<path d="M59.2919 15.1381C59.8828 14.7969 60.3631 15.059 60.365 15.7379C60.3669 16.4168 59.8897 17.2435 59.2988 17.5847C58.7181 17.9199 58.2378 17.6461 58.2358 16.9672C58.2339 16.2882 58.7112 15.4733 59.2919 15.1381Z" fill="white"/>
<path d="M62.7044 13.1677C63.2851 12.8325 63.7654 13.0945 63.7674 13.7734C63.7693 14.4523 63.2921 15.279 62.7113 15.6143C62.1205 15.9554 61.6401 15.6816 61.6382 15.0027C61.6363 14.3238 62.1135 13.5089 62.7044 13.1677Z" fill="white"/>
<path d="M66.1072 11.2032C66.6981 10.8621 67.1785 11.1241 67.1804 11.8031C67.1823 12.482 66.7051 13.3086 66.1142 13.6498C65.5233 13.9909 65.0429 13.7172 65.041 13.0382C65.0391 12.3593 65.5164 11.5444 66.1072 11.2032Z" fill="white"/>
<path d="M19.465 87.4833L15.4529 89.8149L13.7246 88.817L17.7367 86.4854L19.465 87.4833Z" fill="#384E85"/>
<path d="M62.6346 62.3959L58.617 64.7307L56.8887 63.7328L60.9062 61.3981L62.6346 62.3959Z" fill="#384E85"/>
<path d="M73.427 56.1241L69.4095 58.4588L67.6812 57.461L71.6987 55.1262L73.427 56.1241Z" fill="#384E85"/>
<path d="M66.226 70.7242L62.2139 73.0558L58.6465 70.9961L62.6585 68.6646L66.226 70.7242Z" fill="#384E85"/>
<path d="M86.0148 69.6463L81.9973 71.981L78.4243 69.9181L82.4419 67.5834L86.0148 69.6463Z" fill="#384E85"/>
<path d="M91.4138 66.5088L87.3963 68.8435L79.3252 64.1837L83.3428 61.8489L91.4138 66.5088Z" fill="#384E85"/>
<path d="M77.925 58.721L70.5173 63.0259L66.9443 60.9631L74.352 56.6581L77.925 58.721Z" fill="#384E85"/>
<path d="M69.1413 63.8254L65.1238 66.1602L61.5508 64.0973L65.5683 61.7626L69.1413 63.8254Z" fill="#384E85"/>
<path d="M82.4175 61.3148L73.001 66.7871L69.4336 64.7274L78.8501 59.2552L82.4175 61.3148Z" fill="#384E85"/>
<path d="M71.625 67.5866L67.6075 69.9213L64.04 67.8617L68.0576 65.5269L71.625 67.5866Z" fill="#384E85"/>
<path d="M76.1232 70.1836L72.1057 72.5183L68.5327 70.4555L72.5503 68.1207L76.1232 70.1836Z" fill="#384E85"/>
<path d="M63.7424 66.9631L59.7248 69.2978L56.1519 67.235L60.1694 64.9002L63.7424 66.9631Z" fill="#384E85"/>
<path d="M57.2355 65.5335L53.2235 67.865L51.4951 66.8672L55.5072 64.5356L57.2355 65.5335Z" fill="#384E85"/>
<path d="M51.8421 68.6678L47.8245 71.0025L46.0962 70.0047L50.1137 67.6699L51.8421 68.6678Z" fill="#384E85"/>
<path d="M54.5383 82.7273L50.5207 85.0621L46.9478 82.9992L50.9653 80.6644L54.5383 82.7273Z" fill="#384E85"/>
<path d="M46.443 71.8052L42.431 74.1368L40.7026 73.1389L44.7147 70.8074L46.443 71.8052Z" fill="#384E85"/>
<path d="M52.9498 73.2348L48.9377 75.5664L45.3647 73.5035L49.3768 71.172L52.9498 73.2348Z" fill="#384E85"/>
<path d="M41.0496 74.9395L37.032 77.2743L35.3037 76.2765L39.3213 73.9417L41.0496 74.9395Z" fill="#384E85"/>
<path d="M47.5563 76.3692L43.5388 78.7039L39.9658 76.6411L43.9834 74.3063L47.5563 76.3692Z" fill="#384E85"/>
<path d="M55.4335 76.996L51.4214 79.3275L47.854 77.2679L51.8661 74.9363L55.4335 76.996Z" fill="#384E85"/>
<path d="M35.656 78.0738L31.6385 80.4086L29.9102 79.4107L33.9277 77.076L35.656 78.0738Z" fill="#384E85"/>
<path d="M42.1633 79.5035L38.1457 81.8382L34.5728 79.7754L38.5903 77.4406L42.1633 79.5035Z" fill="#384E85"/>
<path d="M59.9317 79.593L55.9197 81.9245L52.3467 79.8617L56.3587 77.5301L59.9317 79.593Z" fill="#384E85"/>
<path d="M50.0401 80.1303L46.0225 82.465L42.4551 80.4054L46.4727 78.0706L50.0401 80.1303Z" fill="#384E85"/>
<path d="M30.2571 81.2114L26.2395 83.5462L24.5112 82.5483L28.5288 80.2136L30.2571 81.2114Z" fill="#384E85"/>
<path d="M36.7644 82.6411L32.7468 84.9758L29.1738 82.913L33.1914 80.5782L36.7644 82.6411Z" fill="#384E85"/>
<path d="M44.647 83.2646L40.6294 85.5994L37.062 83.5397L41.0796 81.205L44.647 83.2646Z" fill="#384E85"/>
<path d="M31.3708 85.7754L27.3532 88.1101L23.7803 86.0472L27.7978 83.7125L31.3708 85.7754Z" fill="#384E85"/>
<path d="M49.1447 85.8616L45.1272 88.1964L41.5542 86.1335L45.5718 83.7988L49.1447 85.8616Z" fill="#384E85"/>
<path d="M39.2481 86.4022L35.2305 88.7369L31.6631 86.6772L35.6806 84.3425L39.2481 86.4022Z" fill="#384E85"/>
<path d="M43.7458 88.9992L39.7282 91.3339L36.1553 89.2711L40.1728 86.9363L43.7458 88.9992Z" fill="#384E85"/>
<path d="M64.6608 82.0556L44.2263 93.9308L40.6533 91.868L61.0879 79.9927L64.6608 82.0556Z" fill="#384E85"/>
<path d="M38.3523 92.1334L34.3347 94.4681L30.7617 92.4053L34.7793 90.0705L38.3523 92.1334Z" fill="#384E85"/>
<path d="M33.8544 89.5365L24.4434 95.0056L20.876 92.9459L30.287 87.4768L33.8544 89.5365Z" fill="#384E85"/>
<path d="M32.9537 95.2709L28.9416 97.6025L25.3687 95.5396L29.3807 93.2081L32.9537 95.2709Z" fill="#384E85"/>
<path d="M42.8507 94.7304L33.4397 100.199L29.8667 98.1366L39.2777 92.6675L42.8507 94.7304Z" fill="#384E85"/>
<path d="M24.8641 84.3457L20.8465 86.6805L19.1182 85.6826L23.1357 83.3479L24.8641 84.3457Z" fill="#384E85"/>
<path d="M68.0281 59.2616L64.0105 61.5963L62.2822 60.5985L66.2998 58.2637L68.0281 59.2616Z" fill="#384E85"/>
<path d="M58.3489 70.0974L54.3313 72.4321L50.7583 70.3693L54.7759 68.0345L58.3489 70.0974Z" fill="#384E85"/>
<path d="M69.8289 79.0524L65.8113 81.3872L62.2383 79.3243L66.2559 76.9896L69.8289 79.0524Z" fill="#384E85"/>
<path d="M65.3308 76.4554L61.3132 78.7902L57.7402 76.7273L61.7578 74.3926L65.3308 76.4554Z" fill="#384E85"/>
<path d="M60.833 73.8585L56.8155 76.1932L53.248 74.1336L57.2656 71.7988L60.833 73.8585Z" fill="#384E85"/>
<path d="M80.6213 72.7806L76.6037 75.1153L73.0308 73.0525L77.0483 70.7177L80.6213 72.7806Z" fill="#384E85"/>
<path d="M75.2222 75.9181L71.2102 78.2497L67.6372 76.1868L71.6493 73.8553L75.2222 75.9181Z" fill="#384E85"/>
<path d="M25.9717 88.9129L19.9509 92.4119L16.3779 90.349L22.3988 86.85L25.9717 88.9129Z" fill="#384E85"/>
<path d="M13.8055 53.3641C14.5833 52.915 15.0426 53.0132 15.3713 53.311L14.9298 54.0269C14.6474 53.7423 14.2849 53.7654 13.842 54.0211C12.9409 54.5414 12.3694 55.6736 12.3725 56.7621C12.3756 57.8463 12.9517 58.3248 13.8528 57.8045C14.2956 57.5488 14.6571 57.1407 14.9369 56.5403L15.3811 56.7493C15.0551 57.4294 14.5979 58.0569 13.82 58.506C12.5492 59.2397 11.6911 58.6093 11.687 57.1579C11.6829 55.7065 12.5347 54.0978 13.8055 53.3641Z" fill="#D9DDF6"/>
<path d="M16.6702 55.7212C16.932 55.57 17.1561 55.6977 17.157 55.9986C17.1578 56.3039 16.9352 56.6851 16.6733 56.8363C16.4076 56.9897 16.1874 56.8642 16.1865 56.5589C16.1857 56.258 16.4045 55.8746 16.6702 55.7212Z" fill="#D9DDF6"/>
<path d="M17.0028 52.5218C17.1926 52.1952 17.1931 51.8413 17.004 51.7314C16.8148 51.6214 16.5076 51.7971 16.3178 52.1237C16.128 52.4503 16.1275 52.8042 16.3166 52.9141C16.5058 53.024 16.813 52.8484 17.0028 52.5218Z" fill="#D9DDF6"/>
<path d="M18.1439 48.9091L20.2553 54.8704L19.7354 55.1705L17.624 49.2093L18.1439 48.9091Z" fill="#D9DDF6"/>
<path d="M22.2587 45.8465L25.9444 47.9514L22.2826 54.2983L21.6915 53.9614L24.7737 48.6272L21.6714 46.8637L22.2587 45.8465Z" fill="#D9DDF6"/>
<path d="M30.0599 47.9597L30.0643 49.5439L26.2096 51.7694L26.2051 50.1853L30.0599 47.9597Z" fill="#D9DDF6"/>
</svg>
