<?xml version="1.0" standalone="no"?>
<!DOCTYPE svg PUBLIC "-//W3C//DTD SVG 20010904//EN"
 "http://www.w3.org/TR/2001/REC-SVG-20010904/DTD/svg10.dtd">
<svg version="1.0" xmlns="http://www.w3.org/2000/svg"
 width="170.000000pt" height="170.000000pt" viewBox="0 0 170.000000 170.000000"
 preserveAspectRatio="xMidYMid meet">
<metadata>
Created by potrace 1.11, written by Peter Selinger 2001-2013
</metadata>
<g transform="translate(0.000000,170.000000) scale(0.100000,-0.100000)"
fill="#000000" stroke="none">
<path d="M150 850 l0 -700 700 0 700 0 0 700 0 700 -700 0 -700 0 0 -700z
m1340 0 l0 -640 -640 0 -640 0 0 640 0 640 640 0 640 0 0 -640z"/>
<path d="M759 1227 c-84 -24 -138 -64 -165 -120 -39 -85 -27 -163 33 -222 36
-35 96 -58 287 -110 41 -11 70 -27 94 -51 30 -30 34 -39 29 -71 -13 -79 -73
-107 -213 -101 -83 3 -101 8 -163 40 l-69 35 -18 -40 -18 -40 28 -22 c76 -61
259 -91 376 -61 179 46 247 225 129 338 -40 38 -53 43 -278 108 -90 26 -131
61 -131 113 0 42 31 84 76 103 51 21 174 18 242 -7 80 -29 84 -29 101 14 17
45 17 45 -69 78 -69 26 -207 34 -271 16z"/>
</g>
</svg>
