<svg width="1440" height="838" viewBox="0 0 1440 838" fill="none" xmlns="http://www.w3.org/2000/svg">
<path d="M1232.08 679.081C1255.84 655.318 1255.84 616.79 1232.08 593.027C1208.32 569.264 1169.79 569.264 1146.03 593.027C1122.26 616.79 1122.26 655.318 1146.03 679.081C1169.79 702.844 1208.32 702.844 1232.08 679.081Z" fill="#4299E1"/>
<path d="M1198.35 658.168C1210.55 653.025 1216.28 638.963 1211.14 626.759C1205.99 614.555 1191.93 608.83 1179.73 613.973C1167.52 619.115 1161.8 633.177 1166.94 645.382C1172.08 657.586 1186.14 663.31 1198.35 658.168Z" fill="white"/>
<path d="M164.033 573.638L191.313 611.959L210.851 569.174L164.033 573.638ZM175.635 578.935L200.465 576.569L190.105 599.261L175.635 578.935Z" fill="#4299E1"/>
<path d="M1078.29 84.0172L1058 126.458L1104.89 122.799L1078.29 84.0172ZM1079.28 96.7332L1093.39 117.301L1068.52 119.244L1079.28 96.7332Z" fill="#4299E1"/>
<path d="M284.895 170.19C289.982 168.068 292.385 162.224 290.263 157.138C288.141 152.051 282.297 149.647 277.211 151.769C272.124 153.891 269.72 159.735 271.842 164.822C273.964 169.909 279.808 172.312 284.895 170.19Z" fill="#FF9D00"/>
<path d="M389.859 144C380.489 144 372.889 151.6 372.889 160.97C372.889 170.34 380.489 177.94 389.859 177.94C399.229 177.94 406.829 170.34 406.829 160.97C406.829 151.6 399.229 144 389.859 144ZM389.859 169.07C385.389 169.07 381.769 165.45 381.769 160.98C381.769 156.51 385.389 152.89 389.859 152.89C394.329 152.89 397.949 156.51 397.949 160.98C397.949 165.45 394.329 169.07 389.859 169.07Z" fill="#FF9D00"/>
<path d="M428.918 151.12C423.478 151.12 419.068 155.53 419.068 160.97C419.068 166.41 423.478 170.82 428.918 170.82C434.358 170.82 438.768 166.41 438.768 160.97C438.768 155.53 434.358 151.12 428.918 151.12ZM428.918 163.63C427.448 163.63 426.258 162.44 426.258 160.97C426.258 159.5 427.448 158.31 428.918 158.31C430.388 158.31 431.578 159.5 431.578 160.97C431.578 162.44 430.388 163.63 428.918 163.63Z" fill="#478EF9"/>
<path d="M352.149 152.24C347.319 152.24 343.409 156.15 343.409 160.98C343.409 165.81 347.319 169.72 352.149 169.72C356.979 169.72 360.889 165.81 360.889 160.98C360.889 156.15 356.979 152.24 352.149 152.24ZM352.149 165.14C349.849 165.14 347.979 163.27 347.979 160.97C347.979 158.67 349.849 156.8 352.149 156.8C354.449 156.8 356.319 158.67 356.319 160.97C356.319 163.27 354.449 165.14 352.149 165.14Z" fill="#FFC200"/>
</svg>
