<svg xmlns="http://www.w3.org/2000/svg" xmlns:xlink="http://www.w3.org/1999/xlink" width="402" height="847" fill="none" xmlns:v="https://vecta.io/nano"><style><![CDATA[.B{fill:#fff}.C{opacity:.04}.D{color-interpolation-filters:sRGB}.E{flood-opacity:0}.F{fill:#adafbd}.G{fill:#363b64}.H{fill:#fbfbfb}.I{stroke-linecap:round}]]></style><rect width="402" height="847" rx="20" class="B"/><g clip-path="url(#d)"><rect x="14" y="17" width="375" height="812" rx="10" fill="#d9e6ff"/><rect x="365" y="593" width="327" height="208" rx="16" transform="rotate(180 365 593)" fill="url(#J)"/><mask id="A" mask-type="alpha" maskUnits="userSpaceOnUse" x="38" y="385" width="327" height="208"><rect x="38" y="385" width="327" height="208" rx="16" fill="url(#K)"/></mask><g mask="url(#A)" class="B"><ellipse cx="176.5" cy="574.5" rx="212.5" ry="85.5" class="C"/><ellipse cx="108.5" cy="578.5" rx="167.5" ry="129.5" class="C"/></g><g class="B"><path d="M71.233 523v-10.182h3.56c.7 0 1.294.123 1.755.368s.804.568 1.03.98.338.86.338 1.358c0 .437-.078.798-.234 1.084a1.82 1.82 0 0 1-.606.676 2.79 2.79 0 0 1-.81.368v.1c.312.02.625.13.94.328s.578.484.8.855.318.826.318 1.362a2.74 2.74 0 0 1-.348 1.378c-.232.408-.598.73-1.1.97s-1.152.358-1.954.358h-3.68zm1.233-1.094h2.446c.805 0 1.377-.156 1.715-.467s.512-.696.512-1.144c0-.344-.088-.662-.264-.954a1.91 1.91 0 0 0-.751-.706c-.325-.18-.7-.27-1.153-.27h-2.506v3.54zm0-4.613h2.287c.37 0 .706-.073 1.004-.22s.54-.35.716-.617.27-.576.27-.934a1.55 1.55 0 0 0-.467-1.139c-.312-.315-.805-.472-1.482-.472h-2.327v3.38zm10.1 5.886c-.484 0-.923-.1-1.318-.273s-.708-.453-.94-.8-.348-.775-.348-1.273c0-.437.086-.792.258-1.064s.403-.5.7-.646a3.98 3.98 0 0 1 .954-.348l1.06-.2 1.13-.134c.292-.033.504-.088.636-.164s.204-.2.204-.398v-.04c0-.5-.134-.87-.403-1.143s-.668-.408-1.208-.408c-.56 0-1 .123-1.317.368s-.542.507-.67.786l-1.114-.398c.2-.464.464-.825.796-1.084s.7-.444 1.094-.547.8-.16 1.173-.16c.245 0 .527.03.845.1s.63.174.93.353.552.45.75.8.298.845.298 1.452V523h-1.173v-1.034h-.06c-.08.166-.212.343-.398.532s-.433.35-.74.482-.684.2-1.128.2zm.18-1.054c.464 0 .855-.1 1.173-.273s.563-.418.726-.706a1.82 1.82 0 0 0 .25-.9v-1.074c-.05.06-.16.114-.328.164s-.358.088-.577.124l-.63.1-.492.06a4.36 4.36 0 0 0-.855.194 1.47 1.47 0 0 0-.636.393c-.16.172-.24.408-.24.706 0 .408.15.716.452.925s.7.308 1.158.308zm6.776-9.307V523H88.35v-10.182h1.173zm4.536 10.36c-.484 0-.923-.1-1.317-.273a2.25 2.25 0 0 1-.94-.8c-.232-.347-.348-.775-.348-1.273 0-.437.086-.792.26-1.064s.403-.5.7-.646a3.98 3.98 0 0 1 .954-.348l1.06-.2 1.128-.134c.292-.033.504-.088.636-.164s.204-.2.204-.398v-.04c0-.5-.134-.87-.403-1.143s-.668-.408-1.208-.408c-.56 0-1 .123-1.317.368s-.542.507-.67.786l-1.114-.398c.2-.464.464-.825.795-1.084s.7-.444 1.094-.547.8-.16 1.173-.16c.245 0 .527.03.845.1s.63.174.93.353.552.45.75.8.298.845.298 1.452V523h-1.173v-1.034h-.06c-.08.166-.212.343-.398.532s-.432.35-.74.482-.684.2-1.13.2zm.18-1.054c.464 0 .855-.1 1.173-.273a1.87 1.87 0 0 0 .726-.706c.166-.3.25-.592.25-.9v-1.074c-.05.06-.16.114-.328.164a5.52 5.52 0 0 1-.577.124l-.63.1-.492.06a4.54 4.54 0 0 0-.855.194 1.47 1.47 0 0 0-.636.393c-.16.172-.24.408-.24.706 0 .408.15.716.452.925s.7.308 1.158.308zm6.776-3.72V523H99.84v-7.636h1.133v1.193h.1a2.18 2.18 0 0 1 .815-.935c.365-.238.835-.358 1.412-.358.517 0 .97.106 1.357.318a2.14 2.14 0 0 1 .905.955c.216.424.323.96.323 1.6V523h-1.173v-4.773c0-.6-.156-1.067-.467-1.402s-.74-.507-1.283-.507c-.374 0-.7.08-1.004.244s-.522.4-.7.7-.254.7-.254 1.133zm10.26 4.753c-.716 0-1.333-.17-1.85-.507s-.915-.804-1.193-1.397-.418-1.27-.418-2.033c0-.776.143-1.46.428-2.054s.7-1.062 1.203-1.397 1.12-.507 1.8-.507c.537 0 1.02.1 1.45.298a2.78 2.78 0 0 1 1.059.836c.276.358.446.775.513 1.253H113.1c-.1-.348-.288-.657-.596-.925s-.716-.408-1.233-.408a2.06 2.06 0 0 0-1.203.358c-.343.238-.6.57-.8 1s-.283.93-.283 1.507c0 .6.093 1.104.278 1.54s.454.777.796 1.02.75.363 1.213.363c.305 0 .58-.053.83-.16a1.7 1.7 0 0 0 .631-.457 1.75 1.75 0 0 0 .368-.716h1.174a2.73 2.73 0 0 1-.493 1.218 2.74 2.74 0 0 1-1.029.855c-.424.2-.918.313-1.48.313zm8.06 0c-.735 0-1.37-.162-1.904-.487s-.94-.786-1.228-1.372-.427-1.276-.427-2.06.142-1.47.427-2.068a3.44 3.44 0 0 1 1.203-1.402c.503-.335 1.12-.507 1.8-.507a3.58 3.58 0 0 1 1.178.2 2.96 2.96 0 0 1 1.06.646c.32.298.572.686.76 1.174s.283 1.087.283 1.8v.498H116.6v-1.015h4.693c0-.43-.086-.815-.258-1.153s-.4-.605-.726-.8a2.05 2.05 0 0 0-1.104-.294c-.467 0-.872.116-1.213.348a2.3 2.3 0 0 0-.781.895 2.63 2.63 0 0 0-.273 1.183v.676c0 .577.1 1.066.298 1.467a2.04 2.04 0 0 0 .84.9c.357.2.773.308 1.247.308.3 0 .587-.043.836-.13a1.75 1.75 0 0 0 .65-.398 1.82 1.82 0 0 0 .423-.666l1.133.318a2.5 2.5 0 0 1-.602 1.014c-.28.3-.63.514-1.044.676s-.88.24-1.397.24zM72.736 538.9l2.92 6.827-1.656 1.11-3.746-7.94h2.48zm1.783 6.788l2.902-6.788h2.48l-3.752 7.94-1.63-1.15zm1.707-.588v6.9h-2.352v-6.9h2.352zm2.685.218v1.438h-7.85v-1.438h7.85zm0 2.53v1.438h-7.85v-1.438h7.85zm17.623-10.13V561h-4.216v-19.17h-.136l-5.443 3.477v-3.864l5.784-3.716h4zm6.23 23.273v-3.045l8.08-7.92 1.932-2.08c.515-.607.9-1.194 1.16-1.762a4.36 4.36 0 0 0 .386-1.818c0-.735-.167-1.364-.5-1.886a3.33 3.33 0 0 0-1.375-1.228c-.583-.288-1.246-.43-2-.43-.765 0-1.435.16-2 .477a3.28 3.28 0 0 0-1.341 1.329c-.3.576-.466 1.262-.466 2.057h-4c0-1.477.337-2.76 1-3.852s1.602-1.936 2.784-2.534c1.2-.6 2.553-.898 4.1-.898 1.56 0 2.932.292 4.114.875s2.098 1.383 2.75 2.398c.66 1.015.988 2.174.988 3.477a6.9 6.9 0 0 1-.5 2.568c-.333.84-.92 1.773-1.76 2.796-.833 1.022-2.004 2.26-3.5 3.716l-4.012 4.08v.16h10.137V561h-15.955zm28.797.443c-1.87 0-3.477-.473-4.818-1.42-1.333-.955-2.36-2.33-3.08-4.125-.712-1.803-1.068-3.974-1.068-6.512.007-2.538.367-4.697 1.08-6.477.72-1.788 1.746-3.15 3.08-4.1 1.34-.94 2.943-1.4 4.806-1.4s3.466.47 4.807 1.4 2.368 2.303 3.08 4.1c.72 1.788 1.08 3.947 1.08 6.477 0 2.546-.36 4.72-1.08 6.523-.712 1.796-1.74 3.167-3.08 4.114-1.333.947-2.935 1.42-4.807 1.42zm0-3.557c1.455 0 2.603-.716 3.444-2.147.848-1.44 1.272-3.557 1.272-6.353 0-1.848-.193-3.4-.58-4.66s-.932-2.204-1.637-2.84a3.58 3.58 0 0 0-2.5-.966c-1.447 0-2.6.72-3.43 2.16-.84 1.43-1.266 3.534-1.273 6.306-.008 1.856.178 3.417.557 4.682.386 1.265.932 2.22 1.636 2.864a3.62 3.62 0 0 0 2.51.954zm14.735 3.364c-.7 0-1.28-.242-1.773-.727s-.734-1.076-.727-1.773a2.33 2.33 0 0 1 .727-1.75c.493-.485 1.084-.727 1.773-.727a2.4 2.4 0 0 1 1.74.727 2.38 2.38 0 0 1 .76 1.75c-.007.462-.13.883-.363 1.26s-.53.682-.9.9a2.36 2.36 0 0 1-1.227.33zm14.42.068c-1.7 0-3.2-.284-4.5-.852s-2.326-1.345-3.07-2.33a5.54 5.54 0 0 1-1.1-3.375c-.008-.977.204-1.875.636-2.693a6 6 0 0 1 1.75-2.045c.742-.553 1.568-.906 2.477-1.057v-.16a4.92 4.92 0 0 1-2.909-1.83c-.735-.962-1.098-2.072-1.1-3.33-.007-1.197.326-2.265 1-3.205s1.6-1.678 2.773-2.216c1.174-.545 2.515-.818 4.023-.818 1.492 0 2.822.273 3.988.818 1.175.538 2.1 1.277 2.773 2.216.682.94 1.023 2.008 1.023 3.205 0 1.257-.375 2.367-1.125 3.33a4.91 4.91 0 0 1-2.875 1.83v.16a5.46 5.46 0 0 1 2.454 1.057 6 6 0 0 1 1.75 2.045c.44.818.66 1.716.66 2.693a5.49 5.49 0 0 1-1.113 3.375c-.743.985-1.765 1.762-3.068 2.33-1.296.568-2.785.852-4.466.852zm0-3.25c.87 0 1.628-.148 2.272-.443.644-.303 1.144-.727 1.5-1.273s.538-1.174.546-1.886c-.008-.743-.2-1.398-.58-1.966-.37-.576-.882-1.027-1.534-1.352-.644-.326-1.38-.5-2.204-.5-.834 0-1.576.163-2.228.5s-1.166.776-1.545 1.352c-.37.568-.553 1.223-.546 1.966-.007.712.167 1.34.523 1.886.356.538.856.96 1.5 1.262.652.303 1.417.454 2.296.454zm0-10.602c.712 0 1.34-.144 1.886-.432.553-.288 1-.7 1.307-1.204s.48-1.1.488-1.785c-.007-.666-.166-1.25-.477-1.75a3.08 3.08 0 0 0-1.295-1.17c-.553-.28-1.2-.42-1.9-.42-.735 0-1.383.14-1.944.42-.553.273-.984.663-1.295 1.17-.303.5-.45 1.084-.443 1.75-.008.675.144 1.27.454 1.785.32.507.754.9 1.307 1.204.56.288 1.2.432 1.92.432zm20.976 13.852c-1.7 0-3.2-.284-4.5-.852-1.303-.568-2.326-1.345-3.068-2.33a5.45 5.45 0 0 1-1.09-3.375c-.008-.977.204-1.875.636-2.693a6 6 0 0 1 1.75-2.045 5.64 5.64 0 0 1 2.477-1.057v-.16a4.92 4.92 0 0 1-2.909-1.83c-.734-.962-1.098-2.072-1.1-3.33-.007-1.197.326-2.265 1-3.205s1.6-1.678 2.773-2.216c1.174-.545 2.515-.818 4.023-.818 1.492 0 2.822.273 4 .818 1.174.538 2.098 1.277 2.772 2.216.682.94 1.023 2.008 1.023 3.205 0 1.257-.375 2.367-1.125 3.33-.742.955-1.7 1.565-2.875 1.83v.16a5.47 5.47 0 0 1 2.455 1.057 6.01 6.01 0 0 1 1.75 2.045c.44.818.66 1.716.66 2.693a5.49 5.49 0 0 1-1.114 3.375c-.742.985-1.765 1.762-3.068 2.33-1.296.568-2.784.852-4.466.852zm0-3.25c.87 0 1.63-.148 2.273-.443.644-.303 1.144-.727 1.5-1.273s.538-1.174.545-1.886c-.007-.743-.2-1.398-.58-1.966-.372-.576-.883-1.027-1.535-1.352-.643-.326-1.378-.5-2.204-.5-.833 0-1.576.163-2.227.5s-1.167.776-1.546 1.352c-.37.568-.553 1.223-.545 1.966-.008.712.166 1.34.522 1.886.357.538.857.96 1.5 1.262.652.303 1.417.454 2.296.454zm0-10.602c.712 0 1.34-.144 1.886-.432.553-.288 1-.7 1.307-1.204s.48-1.1.5-1.785c-.008-.666-.167-1.25-.478-1.75a3.08 3.08 0 0 0-1.295-1.17c-.553-.28-1.2-.42-1.9-.42-.735 0-1.383.14-1.943.42-.553.273-.985.663-1.296 1.17-.303.5-.45 1.084-.443 1.75-.007.675.144 1.27.455 1.785.318.507.753.9 1.306 1.204.56.288 1.2.432 1.92.432zM85.737 430.794v-6.176c0-2.368-1.44-3.912-3.9-3.912-1.234 0-2.572.412-3.497 1.75-.72-1.132-1.75-1.75-3.3-1.75-1.03 0-2.057.3-2.88 1.44v-1.235H70v9.882h2.16v-5.456c0-1.75.926-2.573 2.366-2.573s2.16.926 2.16 2.573v5.456h2.16v-5.456c0-1.75 1.03-2.573 2.366-2.573 1.44 0 2.16.926 2.16 2.573v5.456h2.366zm32-9.882h-3.497v-2.986h-2.16v2.986h-1.955v1.956h1.955v4.53c0 2.265.925 3.603 3.394 3.603a5.77 5.77 0 0 0 2.674-.72l-.617-1.853c-.617.412-1.337.515-1.85.515-1.03 0-1.44-.617-1.44-1.647v-4.426h3.497v-1.956zm18.308-.206c-1.234 0-2.057.618-2.57 1.44v-1.235h-2.16v9.882h2.16v-5.56c0-1.647.72-2.573 2.057-2.573.4 0 .926.103 1.337.206l.617-2.06c-.4-.103-1.028-.103-1.44-.103zm-27.668 1.03c-1.03-.72-2.47-1.03-4.012-1.03-2.468 0-4.114 1.235-4.114 3.2 0 1.647 1.234 2.574 3.394 2.882l1.03.103c1.13.206 1.748.515 1.748 1.03 0 .72-.822 1.235-2.262 1.235s-2.572-.515-3.292-1.03l-1.028 1.647c1.13.823 2.674 1.235 4.217 1.235 2.88 0 4.525-1.338 4.525-3.2 0-1.75-1.337-2.677-3.394-2.985l-1.028-.103c-.926-.103-1.646-.3-1.646-.927 0-.72.72-1.132 1.85-1.132 1.235 0 2.47.514 3.086.823l.926-1.75zm57.394-1.03c-1.234 0-2.057.618-2.57 1.44v-1.235h-2.16v9.882h2.16v-5.56c0-1.647.72-2.573 2.057-2.573.4 0 .925.103 1.337.206l.617-2.06c-.4-.103-1.03-.103-1.44-.103zm-27.566 5.147c0 2.985 2.057 5.147 5.246 5.147 1.44 0 2.47-.3 3.497-1.132l-1.028-1.75c-.823.617-1.646.926-2.572.926-1.748 0-2.983-1.235-2.983-3.2 0-1.853 1.235-3.088 2.983-3.2.926 0 1.75.3 2.572.926l1.028-1.75c-1.028-.823-2.057-1.132-3.497-1.132-3.2 0-5.246 2.162-5.246 5.147zm19.955 0v-4.94H156v1.235c-.72-.926-1.75-1.44-3.086-1.44-2.777 0-4.937 2.162-4.937 5.147s2.16 5.147 4.937 5.147c1.44 0 2.468-.515 3.086-1.44v1.235h2.16v-4.94zm-7.92 0c0-1.75 1.13-3.2 2.982-3.2 1.75 0 2.983 1.338 2.983 3.2 0 1.75-1.234 3.2-2.983 3.2-1.85-.103-2.982-1.44-2.982-3.2zm-25.818-5.147c-2.88 0-4.937 2.06-4.937 5.147s2.057 5.147 5.04 5.147c1.44 0 2.88-.412 4.012-1.338l-1.03-1.544c-.823.617-1.85 1.03-2.88 1.03-1.337 0-2.674-.618-2.983-2.368h7.303v-.823c.103-3.2-1.748-5.25-4.526-5.25zm0 1.853c1.338 0 2.263.823 2.47 2.367h-5.143c.206-1.338 1.132-2.367 2.674-2.367zm53.6 3.294V417h-2.16v5.147c-.72-.926-1.75-1.44-3.086-1.44-2.777 0-4.937 2.162-4.937 5.147s2.16 5.147 4.937 5.147c1.44 0 2.47-.515 3.086-1.44v1.235H178v-4.94zm-7.92 0c0-1.75 1.13-3.2 2.983-3.2 1.748 0 2.983 1.338 2.983 3.2 0 1.75-1.235 3.2-2.983 3.2-1.852-.103-2.983-1.44-2.983-3.2zm-72.206 0v-4.94h-2.16v1.235c-.72-.926-1.75-1.44-3.086-1.44-2.777 0-4.937 2.162-4.937 5.147S89.85 431 92.63 431c1.44 0 2.468-.515 3.086-1.44v1.235h2.16v-4.94zm-8.023 0c0-1.75 1.13-3.2 2.983-3.2 1.75 0 2.983 1.338 2.983 3.2 0 1.75-1.234 3.2-2.983 3.2-1.852-.103-2.983-1.44-2.983-3.2z"/></g><rect x="38" y="153" width="327" height="208" rx="16" fill="url(#L)"/><mask id="B" mask-type="alpha" maskUnits="userSpaceOnUse" x="38" y="153" width="327" height="208"><rect x="38" y="153" width="327" height="208" rx="16" fill="url(#L)"/></mask><g mask="url(#B)" class="B"><ellipse cx="176.5" cy="342.5" rx="212.5" ry="85.5" class="C"/><ellipse cx="108.5" cy="346.5" rx="167.5" ry="129.5" class="C"/></g><g class="B"><path d="M71.233 291v-10.182h3.56c.7 0 1.294.123 1.755.368s.804.568 1.03.98.338.86.338 1.358c0 .437-.078.798-.234 1.084a1.82 1.82 0 0 1-.606.676 2.79 2.79 0 0 1-.81.368v.1c.312.02.625.13.94.328s.578.484.8.855.318.826.318 1.362a2.74 2.74 0 0 1-.348 1.378c-.232.408-.598.73-1.1.97s-1.152.358-1.954.358h-3.68zm1.233-1.094h2.446c.805 0 1.377-.156 1.715-.467s.512-.696.512-1.144c0-.344-.088-.662-.264-.954a1.91 1.91 0 0 0-.751-.706c-.325-.18-.7-.27-1.153-.27h-2.506v3.54zm0-4.613h2.287c.37 0 .706-.073 1.004-.22s.54-.35.716-.617.27-.576.27-.934a1.55 1.55 0 0 0-.467-1.139c-.312-.315-.805-.472-1.482-.472h-2.327v3.38zm10.1 5.886c-.484 0-.923-.1-1.318-.273s-.708-.453-.94-.8-.348-.775-.348-1.273c0-.437.086-.792.258-1.064s.403-.5.7-.646a3.98 3.98 0 0 1 .954-.348l1.06-.2 1.13-.134c.292-.033.504-.088.636-.164s.204-.2.204-.398v-.04c0-.5-.134-.87-.403-1.143s-.668-.408-1.208-.408c-.56 0-1 .123-1.317.368s-.542.507-.67.786l-1.114-.398c.2-.464.464-.825.796-1.084s.7-.444 1.094-.547.8-.16 1.173-.16c.245 0 .527.03.845.1s.63.174.93.353.552.45.75.8.298.845.298 1.452V291h-1.173v-1.034h-.06c-.08.166-.212.343-.398.532s-.433.35-.74.482-.684.2-1.128.2zm.18-1.054c.464 0 .855-.1 1.173-.273s.563-.418.726-.706a1.82 1.82 0 0 0 .25-.9v-1.074c-.05.06-.16.114-.328.164s-.358.088-.577.124l-.63.1-.492.06a4.36 4.36 0 0 0-.855.194 1.47 1.47 0 0 0-.636.393c-.16.172-.24.408-.24.706 0 .408.15.716.452.925s.7.308 1.158.308zm6.776-9.307V291H88.35v-10.182h1.173zm4.536 10.36c-.484 0-.923-.1-1.317-.273a2.25 2.25 0 0 1-.94-.8c-.232-.347-.348-.775-.348-1.273 0-.437.086-.792.26-1.064s.403-.5.7-.646a3.98 3.98 0 0 1 .954-.348l1.06-.2 1.128-.134c.292-.033.504-.088.636-.164s.204-.2.204-.398v-.04c0-.5-.134-.87-.403-1.143s-.668-.408-1.208-.408c-.56 0-1 .123-1.317.368s-.542.507-.67.786l-1.114-.398c.2-.464.464-.825.795-1.084s.7-.444 1.094-.547.8-.16 1.173-.16c.245 0 .527.03.845.1s.63.174.93.353.552.45.75.8.298.845.298 1.452V291h-1.173v-1.034h-.06c-.08.166-.212.343-.398.532s-.432.35-.74.482-.684.2-1.13.2zm.18-1.054c.464 0 .855-.1 1.173-.273a1.87 1.87 0 0 0 .726-.706c.166-.3.25-.592.25-.9v-1.074c-.05.06-.16.114-.328.164a5.52 5.52 0 0 1-.577.124l-.63.1-.492.06a4.54 4.54 0 0 0-.855.194 1.47 1.47 0 0 0-.636.393c-.16.172-.24.408-.24.706 0 .408.15.716.452.925s.7.308 1.158.308zm6.776-3.72V291H99.84v-7.636h1.133v1.193h.1a2.18 2.18 0 0 1 .815-.935c.365-.238.835-.358 1.412-.358.517 0 .97.106 1.357.318a2.14 2.14 0 0 1 .905.955c.216.424.323.96.323 1.6V291h-1.173v-4.773c0-.6-.156-1.067-.467-1.402s-.74-.507-1.283-.507c-.374 0-.7.08-1.004.244s-.522.4-.7.7-.254.7-.254 1.133zm10.26 4.753c-.716 0-1.333-.17-1.85-.507s-.915-.804-1.193-1.397-.418-1.27-.418-2.033c0-.776.143-1.46.428-2.054s.7-1.062 1.203-1.397 1.12-.507 1.8-.507c.537 0 1.02.1 1.45.298a2.78 2.78 0 0 1 1.059.836c.276.358.446.775.513 1.253H113.1c-.1-.348-.288-.657-.596-.925s-.716-.408-1.233-.408a2.06 2.06 0 0 0-1.203.358c-.343.238-.6.57-.8 1s-.283.93-.283 1.507c0 .6.093 1.104.278 1.54s.454.777.796 1.02.75.363 1.213.363c.305 0 .58-.053.83-.16a1.7 1.7 0 0 0 .631-.457 1.75 1.75 0 0 0 .368-.716h1.174a2.73 2.73 0 0 1-.493 1.218 2.74 2.74 0 0 1-1.029.855c-.424.2-.918.313-1.48.313zm8.06 0c-.735 0-1.37-.162-1.904-.487s-.94-.786-1.228-1.372-.427-1.276-.427-2.06.142-1.47.427-2.068a3.44 3.44 0 0 1 1.203-1.402c.503-.335 1.12-.507 1.8-.507a3.58 3.58 0 0 1 1.178.2 2.96 2.96 0 0 1 1.06.646c.32.298.572.686.76 1.174s.283 1.087.283 1.8v.498H116.6v-1.015h4.693c0-.43-.086-.815-.258-1.153s-.4-.605-.726-.8a2.05 2.05 0 0 0-1.104-.294c-.467 0-.872.116-1.213.348a2.3 2.3 0 0 0-.781.895 2.63 2.63 0 0 0-.273 1.183v.676c0 .577.1 1.066.298 1.467a2.04 2.04 0 0 0 .84.9c.357.2.773.308 1.247.308.3 0 .587-.043.836-.13a1.75 1.75 0 0 0 .65-.398 1.82 1.82 0 0 0 .423-.666l1.133.318a2.5 2.5 0 0 1-.602 1.014c-.28.3-.63.514-1.044.676s-.88.24-1.397.24zM72.736 306.9l2.92 6.827-1.656 1.11-3.746-7.94h2.48zm1.783 6.788l2.902-6.788h2.48l-3.752 7.94-1.63-1.15zm1.707-.588v6.9h-2.352v-6.9h2.352zm2.685.218v1.438h-7.85v-1.438h7.85zm0 2.53v1.438h-7.85v-1.438h7.85zm16.51 13.46c-1.636 0-3.1-.28-4.364-.84-1.265-.56-2.265-1.34-3-2.34s-1.125-2.155-1.17-3.466h4.273a2.83 2.83 0 0 0 .625 1.648c.38.462.883.822 1.5 1.08s1.333.386 2.114.386c.833 0 1.572-.144 2.216-.432.644-.295 1.148-.704 1.5-1.227s.542-1.125.534-1.807c.007-.704-.174-1.326-.546-1.863s-.9-.96-1.614-1.262c-.697-.303-1.538-.454-2.523-.454h-2.057v-3.25h2.057c.8 0 1.52-.14 2.125-.42a3.43 3.43 0 0 0 1.443-1.182c.35-.515.52-1.1.5-1.784.008-.66-.14-1.23-.443-1.716-.296-.492-.716-.875-1.26-1.147-.538-.273-1.17-.4-1.898-.4-.712 0-1.37.128-1.977.386s-1.095.625-1.466 1.102c-.37.47-.568 1.03-.6 1.682h-4.057c.03-1.303.405-2.447 1.125-3.432.727-.992 1.697-1.765 2.9-2.318 1.212-.56 2.572-.84 4.08-.84 1.553 0 2.902.292 4.045.875 1.152.576 2.042 1.352 2.67 2.33s.943 2.056.943 3.238c.007 1.3-.38 2.4-1.16 3.296-.773.886-1.788 1.466-3.046 1.738v.182c1.637.227 2.9.834 3.762 1.818.878.978 1.314 2.194 1.306 3.648 0 1.303-.37 2.47-1.113 3.5-.735 1.023-1.75 1.826-3.046 2.4-1.288.584-2.765.875-4.432.875zm21.164 0c-1.636 0-3.1-.28-4.363-.84-1.266-.56-2.266-1.34-3-2.34s-1.125-2.155-1.17-3.466h4.273a2.83 2.83 0 0 0 .625 1.648c.38.462.882.822 1.5 1.08s1.334.386 2.114.386c.833 0 1.572-.144 2.216-.432.644-.295 1.147-.704 1.5-1.227s.542-1.125.534-1.807c.008-.704-.174-1.326-.545-1.863s-.9-.96-1.614-1.262c-.697-.303-1.538-.454-2.523-.454h-2.056v-3.25h2.056c.8 0 1.52-.14 2.125-.42.614-.28 1.095-.674 1.444-1.182.348-.515.52-1.1.5-1.784.008-.66-.14-1.23-.443-1.716a2.99 2.99 0 0 0-1.262-1.147c-.537-.273-1.17-.4-1.897-.4-.712 0-1.372.128-1.978.386a3.6 3.6 0 0 0-1.466 1.102c-.37.47-.568 1.03-.6 1.682h-4.057c.03-1.303.405-2.447 1.125-3.432.727-.992 1.697-1.765 2.9-2.318 1.212-.56 2.572-.84 4.08-.84 1.553 0 2.902.292 4.046.875 1.15.576 2.042 1.352 2.67 2.33s.943 2.056.943 3.238c.008 1.3-.378 2.4-1.16 3.296-.772.886-1.787 1.466-3.045 1.738v.182c1.636.227 2.9.834 3.76 1.818.88.978 1.315 2.194 1.307 3.648 0 1.303-.37 2.47-1.114 3.5-.734 1.023-1.75 1.826-3.045 2.4-1.288.584-2.765.875-4.432.875zm21.084 0c-1.7 0-3.2-.284-4.5-.852-1.303-.568-2.325-1.345-3.068-2.33a5.47 5.47 0 0 1-1.091-3.375c-.007-.977.205-1.875.637-2.693a5.99 5.99 0 0 1 1.75-2.045c.742-.553 1.568-.906 2.477-1.057v-.16c-1.197-.265-2.167-.875-2.9-1.83-.735-.962-1.1-2.072-1.1-3.33-.008-1.197.326-2.265 1-3.205s1.598-1.678 2.773-2.216c1.174-.545 2.515-.818 4.022-.818 1.493 0 2.822.273 4 .818 1.174.538 2.1 1.277 2.773 2.216.682.94 1.022 2.008 1.022 3.205 0 1.257-.375 2.367-1.125 3.33-.742.955-1.7 1.565-2.875 1.83v.16a5.51 5.51 0 0 1 2.455 1.057 6 6 0 0 1 1.75 2.045c.44.818.66 1.716.66 2.693 0 1.258-.37 2.383-1.114 3.375-.742.985-1.765 1.762-3.068 2.33-1.295.568-2.784.852-4.466.852zm0-3.25c.872 0 1.63-.148 2.273-.443.644-.303 1.144-.727 1.5-1.273s.538-1.174.546-1.886c-.008-.743-.2-1.398-.58-1.966a3.8 3.8 0 0 0-1.534-1.352c-.644-.326-1.38-.5-2.205-.5-.833 0-1.575.163-2.227.5s-1.167.776-1.545 1.352c-.372.568-.553 1.223-.546 1.966-.007.712.167 1.34.523 1.886.356.538.856.96 1.5 1.262.65.303 1.417.454 2.295.454zm0-10.602c.713 0 1.34-.144 1.887-.432a3.3 3.3 0 0 0 1.307-1.204c.32-.514.48-1.1.488-1.785-.007-.666-.166-1.25-.477-1.75-.3-.507-.742-.897-1.296-1.17-.553-.28-1.2-.42-1.9-.42-.734 0-1.382.14-1.943.42a3.08 3.08 0 0 0-1.295 1.17c-.303.5-.45 1.084-.443 1.75-.008.675.144 1.27.454 1.785a3.39 3.39 0 0 0 1.307 1.204c.56.288 1.2.432 1.92.432zm14.596 13.784c-.7 0-1.28-.242-1.773-.727a2.35 2.35 0 0 1-.727-1.773c-.008-.682.235-1.265.727-1.75s1.084-.727 1.773-.727a2.4 2.4 0 0 1 1.74.727 2.39 2.39 0 0 1 .761 1.75c-.008.462-.13.883-.364 1.26a2.6 2.6 0 0 1-.91.91 2.36 2.36 0 0 1-1.227.33zm14.593.068c-1.637 0-3.1-.28-4.364-.84-1.265-.56-2.265-1.34-3-2.34s-1.125-2.155-1.17-3.466h4.272c.038.63.247 1.178.625 1.648.38.462.883.822 1.512 1.08s1.333.386 2.113.386c.834 0 1.572-.144 2.216-.432.644-.295 1.148-.704 1.512-1.227s.54-1.125.534-1.807c.007-.704-.175-1.326-.546-1.863s-.9-.96-1.613-1.262c-.697-.303-1.538-.454-2.523-.454h-2.057v-3.25h2.057c.8 0 1.52-.14 2.125-.42.614-.28 1.095-.674 1.443-1.182.35-.515.52-1.1.5-1.784.008-.66-.14-1.23-.443-1.716a2.99 2.99 0 0 0-1.26-1.147c-.538-.273-1.17-.4-1.898-.4-.712 0-1.37.128-1.977.386s-1.095.625-1.466 1.102c-.37.47-.568 1.03-.6 1.682h-4.057c.03-1.303.406-2.447 1.125-3.432.728-.992 1.697-1.765 2.9-2.318 1.212-.56 2.572-.84 4.08-.84 1.553 0 2.9.292 4.045.875 1.152.576 2.042 1.352 2.67 2.33s.943 2.056.943 3.238c.008 1.3-.38 2.4-1.16 3.296-.773.886-1.788 1.466-3.046 1.738v.182c1.637.227 2.9.834 3.762 1.818.88.978 1.314 2.194 1.307 3.648a5.84 5.84 0 0 1-1.114 3.5c-.735 1.023-1.75 1.826-3.045 2.4-1.288.584-2.766.875-4.432.875zm12.4-4.636v-3.352l9.875-15.603h2.795v4.773h-1.704l-6.648 10.534v.182h13.784v3.466h-18.102zM190.35 329v-5.34l.045-1.5v-16.432h3.978V329h-4.023zm-86.437-139.092h-5.02a.7.7 0 0 0-.453.166.69.69 0 0 0-.236.418l-2.03 12.754a.41.41 0 0 0 .011.177.42.42 0 0 0 .085.157.43.43 0 0 0 .143.107.42.42 0 0 0 .175.037h2.396a.7.7 0 0 0 .454-.165.75.75 0 0 0 .236-.42l.548-3.44a.69.69 0 0 1 .235-.418.7.7 0 0 1 .453-.166h1.6c3.306 0 5.214-1.585 5.712-4.727.225-1.374.01-2.454-.64-3.2-.713-.83-1.978-1.27-3.658-1.27zm.58 4.66c-.275 1.784-1.65 1.784-2.98 1.784h-.757l.53-3.333c.015-.097.066-.186.14-.25a.42.42 0 0 1 .272-.1h.347c.907 0 1.76 0 2.203.512.264.306.344.76.244 1.387zm14.423-.058h-2.403a.42.42 0 0 0-.272.099.41.41 0 0 0-.14.25l-.107.666-.168-.24c-.52-.75-1.68-1-2.838-1-2.656 0-4.925 1.994-5.366 4.8-.23 1.395.097 2.73.895 3.66.732.855 1.78 1.2 3.027 1.2 2.14 0 3.327-1.363 3.327-1.363l-.107.662c-.01.06-.006.12.01.177s.045.1.084.157a.42.42 0 0 0 .143.107c.055.025.115.04.175.04h2.165a.7.7 0 0 0 .453-.166.69.69 0 0 0 .236-.418l1.3-8.152c.01-.06.006-.12-.01-.177s-.045-.1-.084-.157a.42.42 0 0 0-.318-.145zm-3.35 4.636c-.232 1.36-1.32 2.274-2.7 2.274-.698 0-1.256-.222-1.614-.642s-.5-1.012-.377-1.674a2.68 2.68 0 0 1 2.693-2.292c.682 0 1.237.225 1.603.65s.5 1.026.406 1.685zm16.15-4.636H129.3a.7.7 0 0 0-.326.081c-.1.053-.187.13-.25.222l-3.33 4.863-1.412-4.673a.69.69 0 0 0-.253-.356.7.7 0 0 0-.416-.137h-2.374a.41.41 0 0 0-.341.173c-.04.054-.064.116-.074.18s-.003.132.018.194l2.66 7.737-2.5 3.5a.42.42 0 0 0-.076.211.41.41 0 0 0 .046.22c.036.068.088.125.154.164a.42.42 0 0 0 .218.061h2.412c.113 0 .224-.027.323-.08a.69.69 0 0 0 .25-.218l8.033-11.5a.41.41 0 0 0-.127-.591.42.42 0 0 0-.216-.06zm7.996-4.602h-5.02a.71.71 0 0 0-.453.166.69.69 0 0 0-.235.418l-2.03 12.754c-.01.06-.006.12.01.177s.046.1.085.156.088.082.143.107a.42.42 0 0 0 .174.038h2.576a.49.49 0 0 0 .482-.408l.576-3.616a.69.69 0 0 1 .235-.418.7.7 0 0 1 .453-.166h1.588c3.307 0 5.214-1.585 5.713-4.727.226-1.374.01-2.454-.64-3.2-.713-.83-1.977-1.27-3.657-1.27zm.58 4.66c-.274 1.784-1.65 1.784-2.98 1.784h-.757l.532-3.333a.42.42 0 0 1 .141-.25c.076-.065.172-.1.272-.1h.347c.906 0 1.76 0 2.203.512.263.306.343.76.243 1.387zm14.423-.058h-2.402a.42.42 0 0 0-.272.099.41.41 0 0 0-.141.251l-.106.666-.17-.24c-.52-.75-1.68-1-2.838-1-2.656 0-4.923 1.994-5.365 4.8-.23 1.395.096 2.73.894 3.66.734.855 1.78 1.2 3.028 1.2 2.14 0 3.326-1.363 3.326-1.363l-.107.662c-.01.06-.006.12.01.177s.045.112.084.157.088.083.144.108a.42.42 0 0 0 .175.038h2.164a.7.7 0 0 0 .453-.166c.126-.107.2-.256.236-.418l1.3-8.152a.41.41 0 0 0-.095-.334c-.04-.046-.088-.082-.143-.107s-.115-.038-.175-.038zm-3.35 4.636c-.23 1.36-1.322 2.274-2.712 2.274-.697 0-1.256-.222-1.614-.642s-.5-1.012-.377-1.674a2.68 2.68 0 0 1 2.693-2.292c.683 0 1.238.225 1.603.65s.513 1.026.407 1.685zm6.183-8.887l-2.06 12.988c-.01.06-.006.12.01.177a.41.41 0 0 0 .084.156c.04.046.088.082.143.107a.42.42 0 0 0 .175.038h2.07c.344 0 .636-.247.7-.584l2.03-12.753c.01-.06.006-.12-.01-.177a.43.43 0 0 0-.085-.157.42.42 0 0 0-.143-.107c-.054-.025-.114-.038-.174-.038h-2.32c-.1 0-.196.035-.272.1a.42.42 0 0 0-.141.25zm-82.216 15.944l.384-2.416-.855-.02h-4.08l2.837-17.827a.23.23 0 0 1 .079-.14c.042-.036.096-.056.152-.055h6.884c2.285 0 3.862.47 4.686 1.4.386.437.632.893.75 1.394.125.527.127 1.156.005 1.923l-.01.056V191l.386.217c.295.148.56.348.782.6.33.373.544.847.634 1.4.093.578.062 1.266-.1 2.045-.176.896-.46 1.676-.845 2.315-.34.572-.796 1.067-1.34 1.454-.5.36-1.118.632-1.804.807-.665.17-1.423.258-2.254.258h-.536c-.383 0-.755.137-1.047.382a1.6 1.6 0 0 0-.546.966l-.04.217-.678 4.258-.03.157c-.008.05-.022.074-.042.1s-.045.026-.07.026h-3.307z"/><path d="M86.914 190.576l-.07.4c-.908 4.62-4.014 6.215-7.98 6.215h-2.02a.98.98 0 0 0-.969.823l-1.327 8.34a.51.51 0 0 0 .117.412.51.51 0 0 0 .177.133.52.52 0 0 0 .216.047h3.582a.86.86 0 0 0 .851-.72l.035-.18.675-4.242.043-.233a.86.86 0 0 1 .851-.721h.536c3.47 0 6.187-1.396 6.98-5.437.332-1.688.16-3.098-.718-4.09-.278-.307-.61-.56-.98-.75z"/></g><path d="M85.965 190.2a7.19 7.19 0 0 0-.883-.194c-.59-.1-1.184-.133-1.78-.13h-5.395a.86.86 0 0 0-.56.205.85.85 0 0 0-.291.516l-1.18 7.415a.97.97 0 0 1 .331-.59.98.98 0 0 1 .638-.233h2.02c3.967 0 7.072-1.597 7.98-6.215.027-.137.05-.27.07-.4a4.9 4.9 0 0 0-.746-.312 7.13 7.13 0 0 0-.203-.063z" fill="#e7ddff"/><path d="M77.056 190.6c.03-.2.134-.384.3-.516s.355-.205.56-.204h5.395c.64 0 1.236.04 1.78.128.368.058.732.144 1.087.257.268.088.517.192.746.312.27-1.707-.002-2.87-.933-3.92-1.027-1.16-2.88-1.655-5.25-1.655h-6.884a.98.98 0 0 0-.972.824l-2.867 18.01a.58.58 0 0 0 .015.251c.023.08.064.157.12.22s.124.116.202.152a.6.6 0 0 0 .247.054h4.25l2.215-13.914z" class="B"/><g filter="url(#C)" class="B"><path d="M14 425c0-8.837 7.163-16 16-16h343c8.837 0 16 7.163 16 16v404H14V425z"/></g><path d="M42.526 778H38.57l6.026-17.455h4.756L55.37 778h-3.955l-4.372-13.466h-.136L42.526 778zm-.247-6.86h9.34v2.88h-9.34v-2.88zm18.994-10.594V778h-3.63v-17.455h3.63zm6.78 0V778h-3.63v-17.455h3.63zm18.48 5.02c-.068-.687-.36-1.22-.878-1.602s-1.22-.57-2.105-.57c-.602 0-1.11.085-1.526.256-.415.164-.733.395-.954.7-.216.296-.324.63-.324 1.006-.01.312.054.585.196.818.148.233.35.435.605.605.256.165.55.3.886.435.335.12.693.22 1.074.307l1.568.375c.76.17 1.46.397 2.097.68s1.188.634 1.653 1.05.827.903 1.082 1.466c.26.562.395 1.207.4 1.934-.006 1.068-.278 1.995-.818 2.78-.534.778-1.307 1.383-2.318 1.815-1.006.426-2.22.64-3.64.64-1.41 0-2.636-.216-3.682-.648-1.04-.43-1.852-1.07-2.437-1.917-.58-.852-.884-1.906-.912-3.162h3.57c.04.585.207 1.074.503 1.466.3.386.702.68 1.202.878.506.193 1.077.29 1.713.29.625 0 1.168-.09 1.628-.272.466-.182.827-.435 1.082-.76a1.75 1.75 0 0 0 .384-1.116c0-.392-.117-.722-.35-.99-.227-.267-.562-.494-1.006-.682-.437-.187-.975-.358-1.61-.51l-1.9-.477c-1.472-.358-2.633-.918-3.486-1.68s-1.276-1.787-1.27-3.077c-.006-1.057.276-1.98.844-2.77.574-.8 1.36-1.406 2.36-1.85s2.136-.665 3.41-.665c1.296 0 2.426.22 3.392.665.972.443 1.727 1.06 2.267 1.85s.818 1.705.835 2.744h-3.537zm6.43 17.344v-18h3.58v2.2h.162c.16-.352.39-.7.7-1.074.307-.37.705-.676 1.193-.92.494-.25 1.108-.375 1.84-.375.955 0 1.836.25 2.642.75.807.494 1.452 1.24 1.935 2.24.483.994.724 2.242.724 3.742 0 1.46-.235 2.693-.707 3.698-.466 1-1.102 1.76-1.91 2.276-.8.51-1.7.767-2.693.767-.705 0-1.304-.116-1.798-.35-.49-.233-.89-.526-1.202-.878-.312-.358-.55-.72-.716-1.083h-.11v7.006h-3.63zm3.554-11.454c0 .778.108 1.457.324 2.036s.528 1.032.938 1.356c.41.318.906.477 1.49.477.59 0 1.09-.162 1.5-.486s.72-.784.93-1.364c.216-.585.324-1.258.324-2.02s-.105-1.42-.315-1.995-.52-1.023-.93-1.346-.912-.486-1.51-.486c-.59 0-1.09.156-1.5.47-.403.312-.713.755-.93 1.33s-.324 1.25-.324 2.03zm17.84 6.8c-1.347 0-2.506-.273-3.477-.818-.966-.552-1.71-1.33-2.233-2.336s-.785-2.207-.785-3.588c0-1.346.262-2.528.785-3.545s1.258-1.8 2.207-2.378 2.074-.852 3.358-.852c.864 0 1.668.14 2.412.417.75.273 1.403.685 1.96 1.236.563.55 1 1.244 1.313 2.08.312.83.468 1.8.468 2.914v.998H109.31v-2.25h7.637c0-.523-.114-.986-.34-1.4a2.45 2.45 0 0 0-.946-.946c-.398-.233-.86-.35-1.39-.35-.552 0-1.04.128-1.466.383s-.75.588-.99 1.015a2.85 2.85 0 0 0-.366 1.406v2.14c0 .648.12 1.207.357 1.68.245.472.59.835 1.032 1.09s.968.383 1.576.383a3.42 3.42 0 0 0 1.108-.17c.336-.114.623-.284.86-.51s.42-.506.546-.836l3.358.222a4.59 4.59 0 0 1-1.049 2.114c-.522.596-1.2 1.062-2.028 1.397-.824.33-1.776.495-2.855.495zm12.248-7.824V778h-3.63v-13.09h3.46v2.3h.153a3.65 3.65 0 0 1 1.458-1.807c.68-.45 1.508-.673 2.48-.673.91 0 1.7.2 2.378.596s1.2.966 1.576 1.705c.375.733.563 1.608.563 2.625V778h-3.63v-7.688c.006-.8-.2-1.426-.614-1.874-.414-.455-.985-.682-1.713-.682-.488 0-.92.105-1.295.315-.37.2-.66.517-.87.92-.205.398-.3.878-.316 1.44zm16.363 7.78c-.994 0-1.895-.256-2.702-.767-.8-.517-1.437-1.276-1.91-2.276-.466-1.005-.698-2.238-.698-3.698 0-1.5.24-2.748.724-3.742.483-1 1.125-1.747 1.926-2.24.807-.5 1.7-.75 2.65-.75.733 0 1.343.125 1.832.375.494.244.892.55 1.193.92.307.364.54.722.7 1.074h.11v-6.563h3.622V778h-3.58v-2.097h-.153c-.17.364-.412.725-.724 1.083-.307.352-.708.645-1.202.878s-1.085.35-1.8.35zm1.15-2.89c.585 0 1.08-.16 1.483-.477.41-.324.72-.776.937-1.356.222-.58.333-1.258.333-2.036s-.108-1.455-.324-2.03-.53-1.017-.938-1.33-.906-.47-1.49-.47c-.597 0-1.1.162-1.51.486s-.72.772-.93 1.346-.315 1.24-.315 1.995.105 1.434.315 2.02c.216.58.526 1.035.93 1.364.41.324.912.486 1.51.486z" class="G"/><g filter="url(#D)" class="B"><path d="M39 806c0-5.523 4.477-10 10-10h135a10 10 0 0 1 10 10v23H39v-23z"/></g><g filter="url(#E)" class="B"><path d="M210 806a10 10 0 0 1 10-10h135a10 10 0 0 1 10 10v23H210v-23z"/></g><g class="F"><path d="M45.524 728.17c-.785-.003-1.457-.2-2.013-.62s-.983-1-1.278-1.795-.442-1.732-.442-2.84.148-2.047.442-2.83.726-1.38 1.283-1.8 1.23-.616 2.008-.616 1.447.207 2.004.62.983 1.008 1.278 1.8.447 1.72.447 2.824-.147 2.058-.442 2.844-.72 1.38-1.278 1.795-1.226.616-2 .616zm0-1.327c.7 0 1.228-.337 1.616-1s.587-1.645.587-2.918c0-.845-.1-1.56-.268-2.143s-.43-1.03-.76-1.332a1.68 1.68 0 0 0-1.173-.457c-.686 0-1.225.338-1.616 1.014s-.588 1.65-.592 2.918c0 .85.088 1.566.264 2.153s.432 1.026.76 1.327a1.7 1.7 0 0 0 1.183.448zm9.018-9.188a3.92 3.92 0 0 1 1.342.249c.44.162.838.43 1.193.8s.643.865.855 1.492.325 1.408.328 2.346c-.003.892-.094 1.686-.273 2.382s-.43 1.277-.766 1.755-.74.84-1.213 1.088-1.003.373-1.596.373c-.607 0-1.145-.12-1.616-.358a3.07 3.07 0 0 1-1.148-.989c-.295-.424-.48-.912-.552-1.462h1.516c.1.438.302.792.607 1.064s.706.403 1.193.403c.746 0 1.327-.325 1.745-.975s.628-1.564.63-2.734h-.08a2.76 2.76 0 0 1-.646.736c-.255.205-.542.364-.86.477s-.658.17-1.02.17a3.08 3.08 0 0 1-1.606-.432 3.2 3.2 0 0 1-1.148-1.19c-.285-.505-.423-1.08-.423-1.73s.146-1.236.438-1.76.706-.943 1.233-1.247 1.152-.46 1.864-.458zm.005 1.293a1.96 1.96 0 0 0-1.049.288 2.08 2.08 0 0 0-.731.776c-.18.324-.268.687-.268 1.088 0 .395.086.753.26 1.074a2.03 2.03 0 0 0 .716.766 1.93 1.93 0 0 0 1.044.278c.292 0 .564-.056.815-.17a2 2 0 0 0 .656-.467 2.28 2.28 0 0 0 .442-.686c.1-.26.164-.53.164-.8 0-.382-.1-.735-.268-1.06s-.418-.585-.726-.78a1.9 1.9 0 0 0-1.054-.298zm6.65 7.8a.96.96 0 0 1-.7-.288c-.195-.192-.293-.43-.293-.706a.94.94 0 0 1 .293-.696c.196-.196.43-.293.7-.293s.505.097.7.293a.94.94 0 0 1 .293.696c0 .182-.046.35-.14.502s-.2.268-.358.358a.94.94 0 0 1-.497.134zm0-5.1a.96.96 0 0 1-.7-.288c-.195-.192-.293-.43-.293-.706a.94.94 0 0 1 .293-.696c.196-.196.43-.293.7-.293s.505.097.7.293a.94.94 0 0 1 .293.696c0 .182-.046.35-.14.502a1.04 1.04 0 0 1-.358.358.96.96 0 0 1-.497.134zm6.65 6.533c-.785-.003-1.457-.2-2.014-.62s-.983-1-1.278-1.795-.443-1.732-.443-2.84.148-2.047.443-2.83.726-1.38 1.283-1.8 1.23-.616 2-.616 1.447.207 2.003.62.983 1.008 1.278 1.8.447 1.72.447 2.824-.147 2.058-.442 2.844-.72 1.38-1.278 1.795-1.226.616-2.008.616zm0-1.327c.7 0 1.228-.337 1.616-1s.587-1.645.587-2.918c0-.845-.1-1.56-.27-2.143s-.43-1.03-.76-1.332a1.68 1.68 0 0 0-1.173-.457c-.686 0-1.225.338-1.616 1.014s-.588 1.65-.592 2.918c0 .85.088 1.566.264 2.153s.432 1.026.76 1.327a1.7 1.7 0 0 0 1.183.448zm9.177 1.327c-.785-.003-1.457-.2-2.014-.62s-.983-1-1.278-1.795-.442-1.732-.442-2.84.147-2.047.442-2.83.726-1.38 1.283-1.8 1.23-.616 2.008-.616 1.447.207 2.004.62.983 1.008 1.278 1.8.447 1.72.447 2.824-.148 2.058-.443 2.844-.72 1.38-1.278 1.795-1.226.616-2.008.616zm0-1.327c.7 0 1.228-.337 1.616-1s.587-1.645.587-2.918c0-.845-.1-1.56-.27-2.143s-.43-1.03-.76-1.332a1.68 1.68 0 0 0-1.173-.457c-.686 0-1.225.338-1.616 1.014s-.588 1.65-.592 2.918c0 .85.088 1.566.264 2.153s.433 1.026.76 1.327a1.7 1.7 0 0 0 1.183.448zm137.818-9.036V728h-1.54v-8.64h-.06l-2.436 1.6v-1.47l2.54-1.66h1.496zm6.335 10.32c-.713 0-1.342-.122-1.9-.368s-.97-.583-1.278-1.014a2.44 2.44 0 0 1-.457-1.47 2.59 2.59 0 0 1 .263-1.189 2.6 2.6 0 0 1 .741-.909 2.28 2.28 0 0 1 1.044-.468v-.06c-.507-.123-.913-.395-1.218-.816s-.456-.905-.453-1.452c-.003-.52.135-.984.413-1.392s.668-.734 1.16-.97 1.05-.353 1.675-.353 1.173.12 1.66.358.877.558 1.16.97.424.87.427 1.387c-.003.547-.16 1.03-.467 1.452a2.07 2.07 0 0 1-1.203.816v.06a2.23 2.23 0 0 1 1.03.468 2.7 2.7 0 0 1 .736.91c.182.365.28.758.283 1.2a2.49 2.49 0 0 1-.467 1.471c-.308.43-.736.77-1.283 1.014s-1.168.368-1.874.368zm0-1.258c.42 0 .785-.07 1.094-.208s.547-.34.716-.592a1.61 1.61 0 0 0 .258-.895c-.003-.355-.096-.668-.278-.94a1.87 1.87 0 0 0-.731-.641 2.31 2.31 0 0 0-1.06-.234c-.4 0-.757.078-1.07.234s-.557.37-.736.64a1.63 1.63 0 0 0-.263.94 1.58 1.58 0 0 0 .243.895c.165.255.4.45.72.592s.68.208 1.104.208zm0-4.738c.338 0 .638-.067.9-.203a1.54 1.54 0 0 0 .616-.567c.153-.242.23-.525.234-.85-.003-.318-.08-.597-.23-.835a1.49 1.49 0 0 0-.61-.552c-.26-.13-.565-.2-.9-.2-.35 0-.66.066-.925.2s-.465.313-.6.552-.217.517-.214.835a1.55 1.55 0 0 0 .22.85 1.54 1.54 0 0 0 .616.567c.265.136.57.203.915.203zm6.545 4.594a.96.96 0 0 1-.994-.994.94.94 0 0 1 .294-.696c.195-.196.43-.293.7-.293s.505.097.7.293a.94.94 0 0 1 .293.696c0 .182-.046.35-.14.502a1.04 1.04 0 0 1-.358.358.95.95 0 0 1-.497.134zm0-5.1a.96.96 0 0 1-.994-.994.94.94 0 0 1 .294-.696c.195-.196.43-.293.7-.293s.505.097.7.293a.94.94 0 0 1 .293.696c0 .182-.046.35-.14.502a1.03 1.03 0 0 1-.358.358c-.15.1-.315.134-.497.134zm6.65 6.533c-.786-.003-1.457-.2-2.014-.62s-.982-1-1.277-1.795-.443-1.732-.443-2.84.148-2.047.443-2.83.726-1.38 1.282-1.8 1.23-.616 2-.616 1.447.207 2.003.62.983 1.008 1.278 1.8.448 1.72.448 2.824-.148 2.058-.443 2.844-.72 1.38-1.278 1.795-1.226.616-2.008.616zm0-1.327c.7 0 1.228-.337 1.616-1s.586-1.645.586-2.918c0-.845-.1-1.56-.268-2.143s-.43-1.03-.76-1.332a1.66 1.66 0 0 0-1.173-.457c-.686 0-1.225.338-1.616 1.014s-.588 1.65-.592 2.918c0 .85.088 1.566.264 2.153s.433 1.026.76 1.327.722.448 1.183.448zm9.177 1.327c-.786-.003-1.457-.2-2.014-.62s-.982-1-1.277-1.795-.443-1.732-.443-2.84.148-2.047.443-2.83.726-1.38 1.282-1.8c.56-.4 1.23-.616 2-.616s1.447.207 2.004.62.982 1.008 1.277 1.8.448 1.72.448 2.824-.148 2.058-.443 2.844-.72 1.38-1.277 1.795-1.227.616-2 .616zm0-1.327c.7 0 1.228-.337 1.616-1s.586-1.645.586-2.918c0-.845-.1-1.56-.268-2.143s-.43-1.03-.76-1.332a1.66 1.66 0 0 0-1.173-.457c-.686 0-1.225.338-1.616 1.014s-.588 1.65-.6 2.918c0 .85.087 1.566.263 2.153s.433 1.026.76 1.327.722.448 1.183.448zm-139.707-9.024V728h-1.54v-8.64h-.06l-2.436 1.6v-1.47l2.54-1.66h1.496zM106.737 728v-1.114l3.445-3.57.9-1.02a3.86 3.86 0 0 0 .542-.84c.12-.265.18-.546.18-.845 0-.338-.08-.63-.24-.875a1.59 1.59 0 0 0-.65-.572 2.12 2.12 0 0 0-.93-.203c-.365 0-.683.074-.955.223a1.53 1.53 0 0 0-.626.632c-.146.272-.22.6-.22.954h-1.466c0-.62.142-1.16.427-1.625s.676-.824 1.173-1.08 1.063-.388 1.696-.388c.64 0 1.203.128 1.7.383s.873.596 1.15 1.034a2.69 2.69 0 0 1 .412 1.471c0 .378-.07.748-.214 1.1s-.382.764-.73 1.208-.832.976-1.452 1.606l-2.024 2.118v.075h4.584V728h-6.7zm9.725-1.263a.96.96 0 0 1-.994-.994.94.94 0 0 1 .294-.696c.195-.196.43-.293.7-.293s.505.097.7.293a.94.94 0 0 1 .293.696c0 .182-.046.35-.14.502a1.04 1.04 0 0 1-.358.358.95.95 0 0 1-.497.134zm0-5.1a.96.96 0 0 1-.994-.994.94.94 0 0 1 .294-.696c.195-.196.43-.293.7-.293s.505.097.7.293a.94.94 0 0 1 .293.696c0 .182-.046.35-.14.502a1.03 1.03 0 0 1-.358.358c-.15.1-.315.134-.497.134zm6.65 6.533c-.785-.003-1.457-.2-2.013-.62s-.983-1-1.278-1.795-.443-1.732-.443-2.84.148-2.047.443-2.83.726-1.38 1.283-1.8 1.23-.616 2.008-.616 1.447.207 2.004.62.982 1.008 1.277 1.8.448 1.72.448 2.824-.148 2.058-.443 2.844-.72 1.38-1.277 1.795-1.227.616-2 .616zm0-1.327c.7 0 1.228-.337 1.616-1s.587-1.645.587-2.918c0-.845-.1-1.56-.27-2.143s-.43-1.03-.76-1.332a1.66 1.66 0 0 0-1.173-.457c-.686 0-1.225.338-1.616 1.014s-.588 1.65-.6 2.918c0 .85.088 1.566.263 2.153s.433 1.026.76 1.327.722.448 1.183.448zm9.177 1.327c-.785-.003-1.456-.2-2.013-.62s-.983-1-1.278-1.795-.442-1.732-.442-2.84.147-2.047.442-2.83.726-1.38 1.283-1.8 1.23-.616 2.008-.616 1.447.207 2.004.62.982 1.008 1.277 1.8.448 1.72.448 2.824-.148 2.058-.443 2.844-.72 1.38-1.277 1.795-1.227.616-2 .616zm0-1.327c.7 0 1.228-.337 1.616-1s.587-1.645.587-2.918c0-.845-.1-1.56-.27-2.143s-.43-1.03-.76-1.332a1.68 1.68 0 0 0-1.174-.457c-.686 0-1.224.338-1.616 1.014s-.588 1.65-.6 2.918c0 .85.088 1.566.263 2.153s.433 1.026.76 1.327a1.7 1.7 0 0 0 1.183.448zM267.98 728v-1.114l3.446-3.57.9-1.02c.24-.295.422-.575.54-.84a2.02 2.02 0 0 0 .179-.845 1.58 1.58 0 0 0-.238-.875 1.57 1.57 0 0 0-.652-.572 2.08 2.08 0 0 0-.929-.203c-.365 0-.683.074-.955.223a1.53 1.53 0 0 0-.626.632c-.146.272-.22.6-.22.954h-1.467c0-.62.143-1.16.428-1.625s.676-.824 1.173-1.08 1.063-.388 1.696-.388c.64 0 1.203.128 1.7.383s.873.596 1.148 1.034a2.7 2.7 0 0 1 .413 1.47c0 .378-.07.748-.214 1.1s-.383.764-.73 1.208-.83.976-1.45 1.606l-2.024 2.118v.075h4.584V728h-6.702zm12.6-10.182V728h-1.54v-8.64h-.06l-2.436 1.6v-1.47l2.54-1.66h1.496zm3.894 8.92a.96.96 0 0 1-.994-.994.94.94 0 0 1 .294-.696c.195-.196.43-.293.7-.293s.505.097.7.293a.94.94 0 0 1 .293.696c0 .182-.046.35-.14.502a1.04 1.04 0 0 1-.358.358.95.95 0 0 1-.497.134zm0-5.1a.96.96 0 0 1-.994-.994.94.94 0 0 1 .294-.696c.195-.196.43-.293.7-.293s.505.097.7.293a.94.94 0 0 1 .293.696c0 .182-.046.35-.14.502a1.03 1.03 0 0 1-.358.358c-.15.1-.315.134-.497.134zm6.65 6.533c-.785-.003-1.457-.2-2.013-.62s-.983-1-1.278-1.795-.443-1.732-.443-2.84.148-2.047.443-2.83.726-1.38 1.283-1.8 1.23-.616 2.008-.616 1.447.207 2.004.62.982 1.008 1.277 1.8.448 1.72.448 2.824-.148 2.058-.443 2.844-.72 1.38-1.277 1.795-1.227.616-2 .616zm0-1.327c.7 0 1.228-.337 1.616-1s.587-1.645.587-2.918c0-.845-.1-1.56-.27-2.143s-.43-1.03-.76-1.332a1.66 1.66 0 0 0-1.173-.457c-.686 0-1.225.338-1.616 1.014s-.588 1.65-.6 2.918c0 .85.088 1.566.263 2.153s.433 1.026.76 1.327.722.448 1.183.448zm9.177 1.327c-.785-.003-1.456-.2-2.013-.62s-.983-1-1.278-1.795-.442-1.732-.442-2.84.147-2.047.442-2.83.726-1.38 1.283-1.8 1.23-.616 2.008-.616 1.447.207 2.004.62.982 1.008 1.277 1.8.448 1.72.448 2.824-.148 2.058-.443 2.844-.72 1.38-1.277 1.795-1.227.616-2 .616zm0-1.327c.7 0 1.228-.337 1.616-1s.587-1.645.587-2.918c0-.845-.1-1.56-.27-2.143s-.43-1.03-.76-1.332a1.68 1.68 0 0 0-1.174-.457c-.686 0-1.224.338-1.616 1.014s-.588 1.65-.6 2.918c0 .85.088 1.566.263 2.153s.433 1.026.76 1.327a1.7 1.7 0 0 0 1.183.448z"/><path d="M159.842 717.818V728h-1.54v-8.64h-.06l-2.436 1.6v-1.47l2.54-1.66h1.496zm6.255 10.32c-.623 0-1.183-.12-1.68-.358a3.05 3.05 0 0 1-1.183-.994c-.295-.42-.453-.902-.473-1.442h1.492a1.49 1.49 0 0 0 .582 1.08c.352.283.772.423 1.262.423.4 0 .738-.1 1.04-.27s.544-.432.716-.75a2.21 2.21 0 0 0 .264-1.088 2.37 2.37 0 0 0-.27-1.11 1.99 1.99 0 0 0-.74-.766c-.312-.185-.67-.28-1.074-.283a2.85 2.85 0 0 0-.93.16 2.17 2.17 0 0 0-.756.418l-1.407-.2.572-5.13h5.598v1.318h-4.32l-.323 2.848h.06c.2-.192.463-.353.8-.482a2.89 2.89 0 0 1 1.064-.194c.62 0 1.17.148 1.655.443a3.14 3.14 0 0 1 1.149 1.208c.28.507.42 1.1.417 1.75.004.66-.145 1.248-.447 1.765s-.713.924-1.243 1.223-1.132.442-1.815.442zm6.46-1.402a.96.96 0 0 1-.994-.994.94.94 0 0 1 .294-.696c.195-.196.43-.293.7-.293s.505.097.7.293a.94.94 0 0 1 .293.696c0 .182-.047.35-.14.502a1.04 1.04 0 0 1-.358.358.95.95 0 0 1-.497.134zm0-5.1a.96.96 0 0 1-.994-.994.94.94 0 0 1 .294-.696c.195-.196.43-.293.7-.293s.505.097.7.293a.94.94 0 0 1 .293.696c0 .182-.047.35-.14.502a1.03 1.03 0 0 1-.358.358c-.15.1-.315.134-.497.134zm6.65 6.533c-.786-.003-1.457-.2-2.014-.62s-.982-1-1.277-1.795-.443-1.732-.443-2.84.148-2.047.443-2.83.725-1.38 1.282-1.8 1.23-.616 2-.616 1.447.207 2.003.62.983 1.008 1.278 1.8.448 1.72.448 2.824-.148 2.058-.443 2.844-.72 1.38-1.278 1.795-1.226.616-2.008.616zm0-1.327c.7 0 1.228-.337 1.616-1s.586-1.645.586-2.918c0-.845-.1-1.56-.268-2.143s-.43-1.03-.76-1.332a1.66 1.66 0 0 0-1.173-.457c-.686 0-1.225.338-1.616 1.014s-.588 1.65-.592 2.918c0 .85.088 1.566.264 2.153s.432 1.026.76 1.327.722.448 1.183.448zm9.177 1.327c-.786-.003-1.457-.2-2.014-.62s-.982-1-1.277-1.795-.443-1.732-.443-2.84.148-2.047.443-2.83.726-1.38 1.282-1.8 1.23-.616 2-.616 1.447.207 2.003.62.983 1.008 1.278 1.8.448 1.72.448 2.824-.148 2.058-.443 2.844-.72 1.38-1.278 1.795-1.226.616-2.008.616zm0-1.327c.7 0 1.228-.337 1.616-1s.586-1.645.586-2.918c0-.845-.1-1.56-.268-2.143s-.43-1.03-.76-1.332a1.66 1.66 0 0 0-1.173-.457c-.686 0-1.225.338-1.616 1.014s-.588 1.65-.6 2.918c0 .85.087 1.566.263 2.153s.433 1.026.76 1.327.722.448 1.183.448zm137.14 1.328c-.785-.003-1.457-.2-2.013-.62s-.983-1-1.278-1.795-.443-1.732-.443-2.84.148-2.047.443-2.83.726-1.38 1.283-1.8 1.23-.616 2.008-.616 1.447.207 2.004.62.982 1.008 1.277 1.8.448 1.72.448 2.824-.148 2.058-.443 2.844-.72 1.38-1.277 1.795-1.227.616-2 .616zm0-1.327c.7 0 1.228-.337 1.616-1s.587-1.645.587-2.918c0-.845-.1-1.56-.27-2.143s-.43-1.03-.76-1.332a1.66 1.66 0 0 0-1.173-.457c-.686 0-1.225.338-1.616 1.014s-.588 1.65-.6 2.918c0 .85.088 1.566.263 2.153s.433 1.026.76 1.327.722.448 1.183.448zm9.177 1.327c-.785-.003-1.456-.2-2.013-.62s-.983-1-1.278-1.795-.442-1.732-.442-2.84.147-2.047.442-2.83.726-1.38 1.283-1.8 1.23-.616 2.008-.616 1.447.207 2.004.62.983 1.008 1.278 1.8.447 1.72.447 2.824-.148 2.058-.443 2.844-.72 1.38-1.277 1.795-1.227.616-2 .616zm0-1.327c.7 0 1.228-.337 1.616-1s.587-1.645.587-2.918c0-.845-.1-1.56-.27-2.143s-.43-1.03-.76-1.332a1.68 1.68 0 0 0-1.174-.457c-.686 0-1.224.338-1.616 1.014s-.588 1.65-.6 2.918c0 .85.088 1.566.263 2.153s.433 1.026.76 1.327a1.7 1.7 0 0 0 1.183.448zm6.632-.105a.96.96 0 0 1-.993-.994c0-.272.097-.504.293-.696a.97.97 0 0 1 .7-.293c.27 0 .505.097.7.293a.94.94 0 0 1 .293.696c0 .182-.046.35-.14.502a1.03 1.03 0 0 1-.358.358.95.95 0 0 1-.497.134zm0-5.1a.96.96 0 0 1-.993-.994c0-.272.097-.504.293-.696a.97.97 0 0 1 .7-.293c.27 0 .505.097.7.293a.94.94 0 0 1 .293.696c0 .182-.046.35-.14.502a1.04 1.04 0 0 1-.358.358.96.96 0 0 1-.497.134zm6.65 6.533c-.785-.003-1.456-.2-2.013-.62s-.983-1-1.278-1.795-.442-1.732-.442-2.84.147-2.047.442-2.83.726-1.38 1.283-1.8 1.23-.616 2.008-.616 1.447.207 2.004.62.982 1.008 1.277 1.8.448 1.72.448 2.824-.148 2.058-.443 2.844-.72 1.38-1.277 1.795-1.227.616-2 .616zm0-1.327c.7 0 1.228-.337 1.616-1s.587-1.645.587-2.918c0-.845-.1-1.56-.27-2.143s-.43-1.03-.76-1.332a1.68 1.68 0 0 0-1.174-.457c-.686 0-1.224.338-1.616 1.014s-.588 1.65-.6 2.918c0 .85.088 1.566.263 2.153s.433 1.026.76 1.327a1.7 1.7 0 0 0 1.183.448zm9.177 1.327c-.785-.003-1.456-.2-2.013-.62s-.983-1-1.278-1.795-.442-1.732-.442-2.84.147-2.047.442-2.83.726-1.38 1.283-1.8 1.23-.616 2.008-.616 1.447.207 2.004.62.983 1.008 1.278 1.8.447 1.72.447 2.824-.147 2.058-.442 2.844-.72 1.38-1.278 1.795-1.226.616-2 .616zm0-1.327c.7 0 1.228-.337 1.616-1s.587-1.645.587-2.918c0-.845-.1-1.56-.27-2.143s-.43-1.03-.76-1.332a1.68 1.68 0 0 0-1.174-.457c-.686 0-1.224.338-1.615 1.014s-.6 1.65-.592 2.918c0 .85.088 1.566.263 2.153s.433 1.026.76 1.327a1.7 1.7 0 0 0 1.183.448z"/></g><path fill="url(#M)" d="M262 526h48v176h-48z" class="C"/><path d="M38 526H86V702H38V526Z" fill="url(#N)" class="C"/><path fill="url(#O)" d="M94 526h48v176H94z" class="C"/><path stroke="url(#P)" stroke-width="4" d="M150 700h48"/><path opacity=".16" fill="url(#Q)" d="M150 526h48v176h-48z"/><path fill="url(#R)" d="M206 526h48v176h-48z" class="C"/><path d="M318 526h48v176h-48V526z" fill="url(#S)" class="C"/><g class="I"><path d="M39 627.128C52.727 584 86.792 514.636 113.23 582.33c33.047 84.62 68.637-42.807 104.226 15.93s48.81 45.793 68.13 19.9 44.74-41.812 63.044-6.97c14.643 27.875 21.015 28.206 22.37 24.888" stroke="url(#T)"/><path opacity=".1" d="M47 627.128C60.727 584 94.792 514.636 121.23 582.33c33.047 84.62 68.637-42.807 104.226 15.93s48.81 45.793 68.13 19.9 44.74-41.812 63.044-6.97c14.643 27.875 21.015 28.206 22.37 24.888" stroke="url(#U)"/></g><circle cx="174" cy="591" r="5" fill="url(#V)"/><g filter="url(#F)" class="B"><rect x="134" y="542" width="80" height="32" rx="16"/></g><path d="M152.85 552.818l2.437 5.49-1.12.63-2.968-6.12h1.65zm1.66 5.474l2.426-5.474h1.65l-2.968 6.12-1.11-.646zm1.138-.646V563h-1.53v-5.354h1.53zm2.158.223v1.005H151.9v-1.005h5.896zm0 1.97v1.004H151.9v-1.004h5.896zm5.956-7.02V563h-1.542v-8.64h-.06l-2.436 1.59v-1.47l2.54-1.66h1.497zm6.255 10.32c-.623 0-1.184-.12-1.68-.358a3.05 3.05 0 0 1-1.183-.994c-.295-.42-.452-.902-.472-1.442h1.49c.037.438.23.797.582 1.08s.772.423 1.263.423c.39 0 .737-.1 1.04-.27s.543-.432.716-.75a2.22 2.22 0 0 0 .263-1.088c0-.415-.09-.784-.268-1.11s-.426-.58-.74-.766-.67-.28-1.074-.283c-.308 0-.618.053-.93.16s-.563.245-.755.418l-1.407-.21.57-5.13h5.598v1.318h-4.32l-.323 2.848h.06c.2-.192.462-.353.8-.482a2.91 2.91 0 0 1 1.064-.194c.62 0 1.172.148 1.656.443a3.14 3.14 0 0 1 1.148 1.208c.282.507.42 1.1.418 1.75.003.66-.146 1.248-.448 1.765a3.24 3.24 0 0 1-1.243 1.223c-.527.295-1.132.442-1.814.442zm6.104-.045c-.27 0-.505-.096-.7-.288s-.293-.43-.293-.706a.94.94 0 0 1 .293-.696.96.96 0 0 1 .701-.293c.272 0 .506.098.7.293a.94.94 0 0 1 .294.696c0 .182-.047.35-.14.502a1.02 1.02 0 0 1-.357.358c-.15.1-.315.134-.498.134zm3.106-.094v-1.114l3.445-3.57.9-1.02c.242-.295.423-.575.542-.84s.18-.546.18-.845c0-.338-.08-.63-.24-.875s-.376-.44-.65-.572-.585-.203-.93-.203c-.364 0-.682.074-.954.223a1.54 1.54 0 0 0-.627.632c-.146.272-.218.6-.218.954h-1.467c0-.62.142-1.16.428-1.625s.676-.824 1.173-1.08 1.062-.388 1.695-.388c.64 0 1.203.128 1.7.383s.874.596 1.15 1.034.413.925.413 1.47c0 .378-.072.748-.214 1.11s-.383.764-.73 1.208-.832.976-1.452 1.606l-2.023 2.118v.075h4.584V563h-6.702zm12.27.14c-.683 0-1.293-.117-1.83-.353s-.956-.562-1.268-.98a2.6 2.6 0 0 1-.497-1.462h1.56c.02.302.12.564.303.786s.428.387.726.507.63.18.995.18c.4 0 .755-.07 1.064-.21s.555-.333.73-.582a1.48 1.48 0 0 0 .264-.87c0-.34-.088-.64-.264-.9a1.72 1.72 0 0 0-.76-.616c-.332-.15-.733-.224-1.203-.224h-.86v-1.253h.86a2.3 2.3 0 0 0 .994-.203 1.63 1.63 0 0 0 .676-.567c.162-.246.244-.532.244-.86 0-.315-.072-.59-.214-.82a1.43 1.43 0 0 0-.597-.551c-.255-.133-.557-.2-.905-.2a2.34 2.34 0 0 0-.929.184c-.285.12-.517.29-.696.517s-.275.49-.29.8h-1.486a2.51 2.51 0 0 1 .487-1.452c.312-.417.723-.744 1.233-.98s1.077-.353 1.7-.353c.653 0 1.217.128 1.69.383s.845.588 1.103 1.01.39.882.388 1.382c.003.57-.156 1.054-.477 1.452s-.743.664-1.273.8v.08c.676.103 1.2.37 1.57.805s.56.973.557 1.616c.003.56-.152 1.062-.467 1.506s-.738.794-1.278 1.05-1.158.378-1.854.378z" class="F"/><path d="M366 625h19v22h-19z" class="B"/><g opacity=".24" filter="url(#G)"><rect x="54" y="490" width="48" height="24" rx="12" fill="url(#W)"/></g><g filter="url(#H)"><rect x="38" y="478" width="80" height="32" rx="16" fill="url(#X)"/></g><path d="M68.415 499H65.12v-10.182h3.4c.998 0 1.854.204 2.57.612s1.264.986 1.646 1.745.577 1.662.577 2.72-.194 1.972-.582 2.735-.94 1.35-1.67 1.76-1.61.612-2.645.612zm-1.76-1.342h1.675c.776 0 1.42-.146 1.934-.438s.898-.72 1.153-1.278.383-1.242.383-2.048c0-.8-.128-1.476-.383-2.033s-.628-.98-1.128-1.268-1.122-.432-1.864-.432h-1.77v7.497zm10.8 1.51c-.484 0-.92-.09-1.312-.268s-.7-.446-.93-.79-.338-.767-.338-1.268c0-.43.083-.785.248-1.064a1.84 1.84 0 0 1 .671-.661c.282-.162.597-.285.945-.368a9.34 9.34 0 0 1 1.064-.189l1.114-.13c.285-.036.492-.094.62-.174s.194-.21.194-.388v-.034c0-.435-.123-.77-.368-1s-.603-.358-1.084-.358c-.5 0-.895.11-1.183.333s-.482.463-.592.73l-1.397-.318c.166-.464.408-.838.726-1.124s.69-.497 1.11-.626.857-.2 1.317-.2c.305 0 .628.037.97.1a2.82 2.82 0 0 1 .965.387c.302.19.55.46.74.81s.288.8.288 1.357V499h-1.452v-1.044h-.06c-.096.192-.24.38-.433.567s-.44.34-.74.462-.663.184-1.084.184zm.323-1.193c.41 0 .762-.08 1.054-.244a1.7 1.7 0 0 0 .671-.636 1.65 1.65 0 0 0 .234-.85v-.985c-.053.053-.156.103-.308.15s-.32.08-.512.114l-.562.084-.457.06c-.288.036-.552.098-.79.184a1.35 1.35 0 0 0-.567.373c-.14.16-.21.37-.21.636 0 .368.136.647.408.835s.618.28 1.04.28zm6.23 3.868a3.06 3.06 0 0 1-.606-.055c-.182-.033-.318-.07-.408-.11l.358-1.218c.408.112.75.12 1.024.025s.512-.387.7-.88l.184-.508-2.794-7.735h1.59l1.934 5.926h.08l1.934-5.926 1.606.015-3.157 8.64c-.146.395-.33.728-.557 1a2.2 2.2 0 0 1-.805.617c-.31.14-.673.21-1.084.21z" class="B"/><rect x="130" y="478" width="80" height="32" rx="16" class="H"/><path d="M154.112 499l-2.824-10.182h1.616l1.984 7.885h.094l2.063-7.885h1.6l2.064 7.9h.094l1.98-7.9h1.62L161.575 499h-1.547l-2.142-7.626h-.08L155.663 499h-1.55zm14.252.154c-.752 0-1.4-.16-1.944-.482s-.958-.78-1.253-1.367-.437-1.28-.437-2.073c0-.783.146-1.472.437-2.07s.706-1.062 1.233-1.397 1.15-.502 1.86-.502c.43 0 .848.07 1.253.214s.767.366 1.088.67.575.7.76 1.188.278 1.073.278 1.765v.527h-6.07v-1.113h4.614c0-.39-.08-.738-.24-1.04a1.8 1.8 0 0 0-.671-.721c-.285-.176-.62-.264-1.004-.264-.418 0-.783.103-1.094.308a2.08 2.08 0 0 0-.716.796c-.166.325-.25.678-.25 1.06v.87c0 .5.1.944.27 1.302s.436.632.76.82.705.278 1.14.278a2.38 2.38 0 0 0 .771-.119 1.67 1.67 0 0 0 .601-.368 1.6 1.6 0 0 0 .388-.602l1.407.254c-.113.414-.315.777-.607 1.09s-.65.548-1.088.72-.93.253-1.487.253zm8.357 0c-.752 0-1.4-.16-1.944-.482s-.958-.78-1.253-1.367-.437-1.28-.437-2.073c0-.783.145-1.472.437-2.07s.706-1.062 1.233-1.397 1.15-.502 1.86-.502a3.73 3.73 0 0 1 1.253.214 3.03 3.03 0 0 1 1.089.671c.322.305.575.7.76 1.188s.278 1.073.278 1.765v.527h-6.07v-1.113h4.613c0-.39-.08-.738-.238-1.04a1.8 1.8 0 0 0-.671-.721c-.285-.176-.62-.264-1.005-.264-.417 0-.782.103-1.093.308a2.07 2.07 0 0 0-.716.796c-.166.325-.25.678-.25 1.06v.87c0 .5.1.944.27 1.302a1.94 1.94 0 0 0 .76.821c.325.185.705.278 1.14.278.282 0 .538-.04.77-.12s.433-.206.602-.368a1.6 1.6 0 0 0 .388-.602l1.407.254c-.113.414-.315.777-.607 1.09s-.65.548-1.09.72-.93.253-1.486.253zm6.433-2.744l-.01-1.815h.258l3.043-3.23h1.78l-3.47 3.68h-.234l-1.367 1.367zm-1.368 2.6v-10.182h1.487V499h-1.487zm4.823 0l-2.734-3.63 1.024-1.04 3.534 4.668h-1.824z" class="F"/><rect x="222" y="478" width="80" height="32" rx="16" class="H"/><path d="M241.12 488.818h1.864l3.24 7.915h.12l3.24-7.915h1.865V499h-1.462v-7.368h-.095l-3.002 7.353h-1.213l-3.003-7.358h-.095V499h-1.46v-10.182zm15.8 10.336c-.716 0-1.34-.164-1.874-.492s-.948-.787-1.243-1.377-.442-1.28-.442-2.068.147-1.485.442-2.08.71-1.053 1.243-1.382 1.158-.492 1.874-.492 1.34.164 1.875.492.948.79 1.243 1.382.442 1.286.442 2.08-.147 1.478-.442 2.068-.7 1.05-1.243 1.377-1.16.492-1.875.492zm.005-1.248c.464 0 .85-.122 1.154-.368s.53-.57.676-.98a3.9 3.9 0 0 0 .224-1.347c0-.488-.075-.935-.224-1.343s-.37-.74-.676-.99-.7-.373-1.154-.373-.855.124-1.163.373a2.22 2.22 0 0 0-.681.989c-.146.408-.22.855-.22 1.343s.073.94.22 1.347.376.734.68.98.696.368 1.163.368zm6.84-3.44V499h-1.487v-7.636h1.427v1.243h.095a2.17 2.17 0 0 1 .825-.975c.378-.245.853-.368 1.427-.368.52 0 .976.1 1.367.328a2.2 2.2 0 0 1 .91.965c.215.427.323.956.323 1.586V499h-1.487v-4.678c0-.554-.144-.986-.432-1.298s-.685-.472-1.188-.472c-.345 0-.652.074-.92.224s-.476.367-.632.656-.228.63-.228 1.034zm10.585-3.102v1.193h-4.17v-1.193h4.17zm-3.052-1.83h1.486v7.224c0 .288.043.505.13.65s.198.24.333.293.3.075.453.075c.12 0 .224-.008.313-.025l.21-.04.268 1.228c-.086.033-.208.067-.368.1s-.358.056-.596.06c-.39.007-.756-.063-1.094-.208a1.88 1.88 0 0 1-.82-.677c-.21-.304-.313-.687-.313-1.148v-7.532zm6.487 4.932V499H276.3v-10.182h1.466v3.79h.095c.18-.41.452-.738.82-.98s.848-.363 1.442-.363c.523 0 .98.108 1.372.323s.7.537.915.965.328.954.328 1.59V499h-1.487v-4.678c0-.56-.144-.995-.432-1.303s-.7-.467-1.203-.467c-.352 0-.667.074-.945.224s-.492.367-.65.656-.234.63-.234 1.034z" class="F"/><rect x="314" y="478" width="80" height="32" rx="16" class="H"/><path d="M338.333 488.818h1.745l2.66 4.63h.11l2.66-4.63h1.745l-3.694 6.185V499h-1.53v-3.997l-3.694-6.185zm12.437 10.336c-.752 0-1.4-.16-1.944-.482s-.957-.78-1.252-1.367-.438-1.28-.438-2.073c0-.783.146-1.472.438-2.07s.706-1.062 1.233-1.397 1.15-.502 1.86-.502c.43 0 .848.07 1.253.214s.767.366 1.09.67.575.7.76 1.188.28 1.073.28 1.765v.527h-6.07v-1.113h4.614c0-.39-.08-.738-.24-1.04a1.8 1.8 0 0 0-.671-.721c-.285-.176-.62-.264-1.004-.264-.418 0-.782.103-1.094.308a2.08 2.08 0 0 0-.716.796c-.166.325-.248.678-.248 1.06v.87c0 .5.09.944.268 1.302a1.94 1.94 0 0 0 .761.821 2.26 2.26 0 0 0 1.138.278 2.38 2.38 0 0 0 .771-.119 1.67 1.67 0 0 0 .601-.368 1.59 1.59 0 0 0 .388-.602l1.407.254a2.56 2.56 0 0 1-.606 1.089 2.96 2.96 0 0 1-1.089.721c-.434.17-.93.253-1.487.253zm7.288.015c-.484 0-.92-.09-1.312-.268s-.7-.446-.93-.79-.338-.767-.338-1.268c0-.43.083-.785.25-1.064s.39-.498.67-.66a3.51 3.51 0 0 1 .944-.368 9.35 9.35 0 0 1 1.064-.189l1.114-.13c.285-.036.492-.094.62-.174s.194-.21.194-.388v-.034c0-.435-.122-.77-.368-1s-.603-.358-1.083-.358c-.5 0-.895.11-1.184.333s-.482.463-.59.73l-1.397-.318c.165-.464.407-.838.725-1.124s.692-.497 1.11-.626a4.32 4.32 0 0 1 1.318-.199c.305 0 .628.037.97.1a2.83 2.83 0 0 1 .965.387c.3.19.548.46.74.81s.29.8.29 1.357V499h-1.452v-1.044h-.06c-.096.192-.24.38-.432.567s-.44.34-.74.462-.663.184-1.084.184zm.323-1.193c.41 0 .763-.08 1.054-.244s.52-.374.672-.636a1.66 1.66 0 0 0 .233-.85v-.985c-.053.053-.156.103-.308.15a4.79 4.79 0 0 1-.512.114l-.562.084-.457.06a3.67 3.67 0 0 0-.791.184c-.235.086-.424.2-.567.373s-.208.37-.208.636c0 .368.136.647.407.835s.618.28 1.04.28zm5.566 1.024v-7.636h1.436v1.213h.08c.14-.41.384-.734.736-.97s.755-.358 1.203-.358l.328.01.303.025v1.422c-.06-.017-.165-.035-.318-.055a3.06 3.06 0 0 0-.457-.035 1.94 1.94 0 0 0-.94.224 1.66 1.66 0 0 0-.646.612c-.16.258-.24.553-.24.885V499h-1.486z" class="F"/><path fill="url(#Y)" d="M314 466h75v56h-75z"/><path d="M42.526 456H38.57l6.026-17.455h4.756L55.37 456h-3.955l-4.372-13.466h-.136L42.526 456zm-.247-6.86h9.34v2.88h-9.34v-2.88zm18.994-10.594V456h-3.63v-17.455h3.63zm6.78 0V456h-3.63v-17.455h3.63zm18.48 5.02c-.068-.687-.36-1.22-.878-1.602s-1.22-.57-2.105-.57c-.602 0-1.11.085-1.526.256-.415.164-.733.395-.954.7-.216.296-.324.63-.324 1.006-.01.312.054.585.196.818.148.233.35.435.605.605s.55.3.886.435c.335.12.693.22 1.074.307l1.568.375c.76.17 1.46.397 2.097.68s1.188.634 1.653 1.05.827.903 1.082 1.466c.26.562.395 1.207.4 1.934-.006 1.068-.278 1.995-.818 2.78-.534.778-1.307 1.383-2.318 1.815-1.006.426-2.22.64-3.64.64-1.41 0-2.636-.216-3.682-.648-1.04-.43-1.852-1.07-2.437-1.917-.58-.852-.884-1.906-.912-3.162h3.57c.04.585.207 1.074.503 1.466.3.386.702.68 1.202.878.506.193 1.077.29 1.713.29.625 0 1.168-.09 1.628-.272.466-.182.827-.435 1.082-.76a1.75 1.75 0 0 0 .384-1.116c0-.392-.117-.722-.35-.99-.227-.267-.562-.494-1.006-.682-.437-.187-.975-.358-1.61-.51l-1.9-.477c-1.472-.358-2.633-.918-3.486-1.68s-1.276-1.787-1.27-3.077c-.006-1.057.276-1.98.844-2.77.574-.8 1.36-1.406 2.36-1.85s2.136-.665 3.41-.665c1.296 0 2.426.22 3.392.665.972.443 1.727 1.06 2.267 1.85s.818 1.705.835 2.744h-3.537zm13.393-.656v2.727H92.04v-2.727h7.884zm-6.094-3.136h3.63v12.204c0 .335.05.597.153.784.102.182.244.3.426.384.188.074.403.11.648.11a3.15 3.15 0 0 0 .511-.043l.392-.077.57 2.702a10.17 10.17 0 0 1-.767.196c-.33.08-.73.128-1.202.145-.875.034-1.642-.082-2.3-.35-.653-.268-1.162-.682-1.526-1.245s-.543-1.273-.537-2.13v-12.682zm12.43 16.474c-.835 0-1.58-.145-2.233-.435a3.6 3.6 0 0 1-1.551-1.303c-.375-.58-.562-1.302-.562-2.165 0-.728.133-1.338.4-1.833s.63-.892 1.09-1.193.983-.528 1.57-.682 1.2-.26 1.857-.324l1.84-.22c.466-.074.804-.182 1.015-.324s.315-.352.315-.63v-.05c0-.54-.17-.957-.51-1.253s-.813-.443-1.432-.443c-.654 0-1.174.145-1.56.435a2 2 0 0 0-.767 1.074l-3.358-.273c.17-.795.506-1.483 1.006-2.063.5-.585 1.145-1.034 1.934-1.346.796-.318 1.716-.477 2.762-.477a8.4 8.4 0 0 1 2.088.255c.67.17 1.264.435 1.78.793.523.358.935.818 1.236 1.38.3.556.452 1.224.452 2.002V456h-3.444v-1.815h-.102c-.2.41-.49.77-.844 1.082s-.775.548-1.27.724-1.066.256-1.714.256zm1.04-2.506c.534 0 1.006-.105 1.415-.315.41-.216.73-.506.963-.87s.35-.776.35-1.236v-1.39c-.113.074-.27.142-.468.204l-.657.162-.732.128-.665.094a4.49 4.49 0 0 0-1.117.298c-.318.137-.565.32-.74.554-.176.227-.264.512-.264.852 0 .495.18.873.537 1.134.363.256.823.383 1.38.383zm16.352-10.832v2.727h-7.883v-2.727h7.883zm-6.093-3.136h3.63v12.204c0 .335.052.597.154.784.102.182.244.3.426.384s.403.11.648.11c.17 0 .34-.015.51-.043l.392-.077.57 2.702c-.182.057-.437.122-.767.196-.33.08-.73.128-1.202.145-.875.034-1.642-.082-2.3-.35-.653-.268-1.162-.682-1.525-1.245s-.543-1.273-.537-2.13v-12.682zM126.26 456v-13.09h3.63V456h-3.63zm1.833-14.778a1.97 1.97 0 0 1-1.389-.537c-.387-.364-.58-.8-.58-1.304 0-.5.193-.93.58-1.287a1.94 1.94 0 0 1 1.38-.546c.546 0 1.01.182 1.4.546.386.358.58.787.58 1.287a1.73 1.73 0 0 1-.579 1.304c-.38.358-.84.537-1.38.537zm15.84 5.42l-3.324.205a1.71 1.71 0 0 0-.367-.767c-.187-.233-.434-.418-.74-.554-.3-.142-.662-.214-1.083-.214-.562 0-1.037.12-1.423.358s-.58.546-.58.938a1.01 1.01 0 0 0 .375.793c.25.215.68.39 1.286.52l2.37.478c1.273.26 2.22.682 2.846 1.26s.938 1.34.938 2.284c0 .858-.253 1.61-.76 2.26-.5.647-1.187 1.153-2.062 1.517-.87.358-1.872.537-3.01.537-1.733 0-3.113-.36-4.142-1.083-1.022-.727-1.622-1.716-1.798-2.966l3.57-.187c.108.528.37.932.784 1.2.415.273.946.41 1.594.41.636 0 1.148-.122 1.534-.366.392-.25.59-.57.597-.963a1 1 0 0 0-.418-.81c-.273-.216-.693-.38-1.26-.494l-2.267-.452c-1.28-.256-2.23-.7-2.856-1.33-.62-.63-.93-1.434-.93-2.412 0-.84.228-1.565.682-2.173.46-.608 1.105-1.077 1.935-1.406s1.812-.494 2.932-.494c1.653 0 2.954.35 3.903 1.048.955.7 1.512 1.65 1.67 2.855zm9.787-3.733v2.727h-7.883v-2.727h7.883zm-6.094-3.136h3.63v12.204c0 .335.05.597.154.784.102.182.244.3.426.384a1.75 1.75 0 0 0 .647.111 3.16 3.16 0 0 0 .512-.043l.392-.077.57 2.702c-.182.057-.438.122-.767.196-.33.08-.73.128-1.202.145-.875.034-1.642-.082-2.3-.35a3.22 3.22 0 0 1-1.526-1.245c-.363-.562-.542-1.273-.537-2.13v-12.682zm8.7 16.227v-13.09h3.63V456h-3.63zm1.833-14.778c-.54 0-1.003-.18-1.4-.537a1.73 1.73 0 0 1-.579-1.304c0-.5.193-.93.58-1.287.387-.364.847-.546 1.38-.546.546 0 1.01.182 1.39.546.387.358.58.787.58 1.287 0 .505-.193.94-.58 1.304a1.94 1.94 0 0 1-1.38.537zm10.86 15.034c-1.34 0-2.494-.284-3.46-.853-.96-.573-1.7-1.37-2.216-2.386-.51-1.017-.767-2.187-.767-3.51 0-1.34.258-2.517.775-3.53a5.77 5.77 0 0 1 2.225-2.378c.96-.573 2.102-.86 3.426-.86 1.142 0 2.142.207 3 .622s1.537.997 2.037 1.747.776 1.63.827 2.642h-3.426c-.097-.653-.353-1.18-.768-1.577-.41-.403-.946-.605-1.6-.605a2.44 2.44 0 0 0-1.475.46c-.415.302-.738.742-.97 1.32s-.35 1.282-.35 2.106c0 .835.114 1.545.34 2.13.233.585.56 1.03.98 1.338s.912.46 1.475.46c.414 0 .787-.086 1.116-.256.335-.17.61-.418.827-.742.22-.33.366-.724.435-1.184h3.426c-.057 1-.33 1.88-.82 2.642-.482.755-1.15 1.346-2.002 1.772s-1.86.64-3.026.64z" class="G"/><path stroke="#eaeaec" stroke-width="4" d="M188 423h28" class="I"/><g opacity=".48" filter="url(#I)" class="B"><rect x="38" y="41" width="327" height="96" rx="20"/></g><rect x="319" y="78" width="8" height="8" rx="4" fill="url(#Z)"/><rect x="319" y="92" width="8" height="8" rx="4" fill="url(#a)"/><rect x="333" y="78" width="8" height="8" rx="4" fill="url(#b)"/><rect x="333" y="92" width="8" height="8" rx="4" fill="url(#c)"/><path d="M62.676 63.912v-1.094h7.636v1.094H67.11V73h-1.233v-9.088h-3.202zM74.19 73.16c-.69 0-1.294-.164-1.815-.492s-.92-.787-1.213-1.377-.432-1.28-.432-2.068c0-.795.144-1.5.432-2.083s.696-1.054 1.213-1.382 1.125-.492 1.815-.492 1.293.164 1.8.492.925.79 1.213 1.382.438 1.288.438 2.083c0 .79-.146 1.478-.437 2.068S76.52 72.34 76 72.667s-1.12.492-1.8.492zm0-1.054c.524 0 .955-.134 1.293-.403s.588-.62.75-1.06.244-.912.244-1.422-.08-.986-.244-1.427-.413-.797-.75-1.07-.77-.408-1.293-.408-.955.136-1.293.408-.588.628-.75 1.07-.244.916-.244 1.427.08.984.244 1.422.413.8.75 1.06.77.403 1.293.403zm8.712-6.74v.994h-3.957v-.994h3.957zm-2.804-1.83h1.173v7.278c0 .33.048.58.144.746s.225.272.378.328a1.52 1.52 0 0 0 .492.08c.13 0 .235-.007.318-.02l.2-.04.24 1.054c-.08.03-.19.06-.333.1s-.323.05-.542.05a2.36 2.36 0 0 1-.974-.214c-.315-.143-.577-.36-.785-.65s-.308-.66-.308-1.104v-7.597zm6.956 9.645c-.484 0-.923-.09-1.317-.273a2.26 2.26 0 0 1-.94-.8c-.232-.35-.348-.776-.348-1.273 0-.437.086-.792.258-1.064s.403-.49.69-.646.607-.272.955-.348l1.06-.19 1.13-.134c.292-.033.504-.088.636-.164s.204-.21.204-.398v-.04c0-.5-.134-.872-.403-1.143s-.668-.408-1.208-.408c-.56 0-1 .123-1.317.368s-.542.507-.67.785l-1.114-.398c.2-.464.464-.825.796-1.084a2.98 2.98 0 0 1 1.094-.547 4.54 4.54 0 0 1 1.173-.159c.245 0 .527.03.845.1s.63.174.93.353.552.45.75.8.298.845.298 1.452V73h-1.173v-1.034h-.06c-.08.166-.212.343-.398.532s-.433.35-.74.482-.684.2-1.13.2zm.18-1.054c.464 0 .855-.09 1.173-.273s.563-.418.726-.706a1.8 1.8 0 0 0 .249-.91v-1.074c-.05.06-.16.114-.328.164s-.358.088-.577.124l-.63.1-.492.06a4.48 4.48 0 0 0-.855.194c-.262.086-.474.217-.636.393s-.24.408-.24.706c0 .408.15.716.452.925s.69.308 1.158.308zM94 62.818V73h-1.173V62.818H94zM100.536 73V62.818h3.56c.71 0 1.294.123 1.754.368s.804.568 1.03.98.338.86.338 1.357c0 .438-.078.8-.234 1.084s-.355.51-.607.676a2.75 2.75 0 0 1-.81.368v.1c.312.02.625.13.94.328s.578.484.8.855.318.825.318 1.362c0 .5-.116.97-.348 1.377s-.598.73-1.098.97-1.152.358-1.954.358h-3.68zm1.233-1.094h2.446c.805 0 1.377-.156 1.715-.467a1.5 1.5 0 0 0 .512-1.143 1.82 1.82 0 0 0-.263-.955 1.91 1.91 0 0 0-.751-.706c-.325-.18-.71-.268-1.154-.268h-2.505v3.54zm0-4.614h2.287c.37 0 .706-.073 1.004-.22s.54-.35.716-.616a1.63 1.63 0 0 0 .268-.935c0-.447-.155-.827-.467-1.138s-.805-.472-1.48-.472h-2.327v3.38zm10.1 5.886c-.484 0-.923-.09-1.317-.273s-.708-.452-.94-.8-.348-.776-.348-1.273c0-.437.086-.792.26-1.064s.402-.49.69-.646.606-.272.954-.348l1.06-.19 1.13-.134c.292-.033.504-.088.636-.164s.204-.21.204-.398v-.04c0-.5-.134-.872-.403-1.143s-.667-.408-1.208-.408c-.56 0-1 .123-1.317.368s-.542.507-.67.785l-1.114-.398c.2-.464.464-.825.795-1.084s.7-.444 1.094-.547.79-.16 1.174-.16c.245 0 .527.03.845.1a2.7 2.7 0 0 1 .929.353c.302.18.552.45.75.8s.298.845.298 1.452V73h-1.173v-1.034h-.06c-.08.166-.212.343-.397.532s-.433.35-.74.482-.684.2-1.13.2zm.18-1.054c.464 0 .855-.09 1.174-.273a1.87 1.87 0 0 0 .726-.706c.165-.288.248-.592.248-.9v-1.074c-.05.06-.16.114-.328.164s-.358.088-.577.124l-.63.1-.492.06a4.48 4.48 0 0 0-.855.194c-.262.086-.474.217-.637.393s-.238.408-.238.706c0 .408.15.716.452.925s.69.308 1.158.308zm6.776-9.307V73h-1.173V62.818h1.173zm4.536 10.36c-.484 0-.923-.09-1.317-.273s-.708-.452-.94-.8-.348-.776-.348-1.273c0-.437.086-.792.26-1.064s.402-.49.69-.646.606-.272.954-.348l1.06-.19 1.13-.134c.29-.033.504-.088.636-.164s.204-.21.204-.398v-.04c0-.5-.134-.872-.403-1.143s-.668-.408-1.208-.408c-.56 0-1 .123-1.317.368s-.542.507-.67.785l-1.114-.398c.2-.464.464-.825.795-1.084s.7-.444 1.094-.547a4.54 4.54 0 0 1 1.173-.159c.246 0 .527.03.846.1a2.7 2.7 0 0 1 .929.353c.302.18.552.45.75.8s.298.845.298 1.452V73h-1.173v-1.034h-.06c-.08.166-.212.343-.397.532s-.433.35-.74.482-.685.2-1.13.2zm.18-1.054c.464 0 .855-.09 1.174-.273a1.86 1.86 0 0 0 .725-.706c.166-.288.25-.592.25-.9v-1.074c-.05.06-.16.114-.328.164s-.358.088-.577.124l-.63.1-.492.06c-.305.04-.6.104-.856.194a1.48 1.48 0 0 0-.636.393c-.16.172-.24.408-.24.706 0 .408.15.716.453.925s.69.308 1.158.308zm6.776-3.72V73h-1.173v-7.636h1.133v1.193h.1c.18-.388.45-.7.815-.935s.835-.358 1.412-.358c.517 0 .97.106 1.357.318a2.14 2.14 0 0 1 .905.954c.216.424.323.96.323 1.61V73h-1.173v-4.773c0-.6-.156-1.067-.467-1.402s-.74-.507-1.283-.507c-.375 0-.71.08-1.004.244a1.74 1.74 0 0 0-.691.711c-.17.312-.254.69-.254 1.133zm10.26 4.753c-.716 0-1.333-.17-1.85-.507s-.915-.804-1.193-1.397-.418-1.27-.418-2.033c0-.776.143-1.46.428-2.053s.69-1.062 1.203-1.397 1.12-.507 1.8-.507c.537 0 1.02.1 1.45.298a2.78 2.78 0 0 1 1.059.835c.275.358.446.776.512 1.253h-1.173c-.09-.348-.288-.656-.596-.925s-.716-.408-1.233-.408c-.458 0-.86.12-1.204.358s-.608.57-.8 1-.283.93-.283 1.506c0 .6.092 1.104.278 1.54s.454.777.795 1.02.75.363 1.214.363c.304 0 .58-.053.83-.16a1.71 1.71 0 0 0 .631-.457c.173-.2.295-.437.368-.716h1.173c-.066.45-.23.857-.492 1.218s-.6.643-1.03.855-.918.313-1.48.313zm8.06 0c-.735 0-1.37-.162-1.904-.487s-.94-.785-1.228-1.372-.427-1.276-.427-2.058.142-1.472.427-2.068.7-1.067 1.203-1.402 1.12-.507 1.8-.507c.398 0 .8.066 1.178.2s.74.348 1.06.646.572.686.76 1.173.283 1.087.283 1.8v.497h-5.886v-1.014h4.693c0-.43-.086-.815-.258-1.153s-.41-.605-.726-.8-.68-.293-1.104-.293c-.467 0-.872.116-1.213.348s-.598.527-.78.895-.273.762-.273 1.183v.676c0 .577.1 1.066.298 1.467a2.15 2.15 0 0 0 .84.91c.358.206.774.308 1.248.308.31 0 .587-.043.836-.13a1.79 1.79 0 0 0 .651-.398c.182-.18.323-.4.422-.666l1.134.318c-.12.385-.32.723-.602 1.014a2.92 2.92 0 0 1-1.044.676c-.414.16-.88.24-1.397.24z" class="F"/><g class="G"><path d="M67.184 103.636h1.355l.006-1.463c2.742-.2 4.315-1.707 4.32-3.848-.006-2.27-1.88-3.305-3.848-3.77l-.422-.1.026-3.65c1.023.18 1.68.793 1.783 1.713h2.282c-.038-2.033-1.636-3.516-4.053-3.746l.006-1.5h-1.355l-.006 1.5c-2.397.243-4.123 1.713-4.116 3.83 0 1.88 1.336 2.96 3.5 3.516l.575.147-.026 3.867c-1.144-.18-1.97-.83-2.052-1.988h-2.333c.1 2.397 1.74 3.822 4.372 4.04l-.006 1.463zm1.374-3.515l.026-3.5c1.163.34 1.905.786 1.9 1.694-.006.946-.767 1.624-1.937 1.816zm-1.316-6.02c-.882-.28-1.687-.748-1.675-1.656.006-.825.626-1.464 1.7-1.65l-.025 3.305zm11.406 12.582v-3.352l9.875-15.603h2.796V92.5h-1.705l-6.648 10.534v.182H96.75v3.466H78.648zM89.75 111v-5.34l.046-1.5V87.727h3.977V111H89.75zm19.042.318c-1.516 0-2.872-.284-4.07-.852-1.197-.576-2.147-1.364-2.852-2.364-.697-1-1.068-2.144-1.114-3.432h4.1a3.22 3.22 0 0 0 1.239 2.341c.75.6 1.652.898 2.705.898.825 0 1.56-.2 2.204-.568a4.06 4.06 0 0 0 1.523-1.58c.37-.675.553-1.443.545-2.306.008-.88-.178-1.66-.557-2.34s-.897-1.216-1.556-1.603c-.66-.394-1.417-.6-2.273-.6a5.39 5.39 0 0 0-2.057.386c-.674.266-1.208.614-1.602 1.045l-3.807-.625 1.216-12h13.5v3.523h-10l-.67 6.17h.136c.432-.508 1.042-.928 1.83-1.26.788-.34 1.652-.5 2.6-.5 1.4 0 2.667.333 3.773 1 1.106.66 1.977 1.568 2.613 2.727s.955 2.485.955 3.977c0 1.538-.356 2.9-1.068 4.114-.705 1.197-1.686 2.14-2.944 2.83-1.25.682-2.696 1.023-4.34 1.023zM129.35 87.34c1.114.008 2.197.205 3.25.6 1.06.386 2.015 1 2.864 1.875s1.523 2.02 2.023 3.466.75 3.24.75 5.375c0 2-.216 3.788-.648 5.363-.424 1.57-1.034 2.894-1.83 3.978-.788 1.083-1.742 1.9-2.863 2.477s-2.383.852-3.784.852c-1.47 0-2.773-.288-3.9-.863a7.35 7.35 0 0 1-2.738-2.364c-.697-1-1.125-2.144-1.284-3.432h4.147c.213.924.644 1.66 1.296 2.205.66.538 1.5.806 2.5.806 1.613 0 2.856-.7 3.727-2.102s1.307-3.348 1.307-5.84h-.16a5.99 5.99 0 0 1-1.444 1.728 6.68 6.68 0 0 1-2.01 1.102c-.742.257-1.53.386-2.364.386-1.363 0-2.6-.326-3.68-.977a7.11 7.11 0 0 1-2.591-2.682c-.63-1.144-.944-2.45-.944-3.92 0-1.53.35-2.9 1.046-4.114.704-1.212 1.686-2.167 2.943-2.864 1.258-.705 2.727-1.053 4.4-1.045zm.012 3.4c-.82 0-1.557.2-2.216.602a4.36 4.36 0 0 0-1.546 1.625c-.37.682-.557 1.447-.557 2.295 0 .833.182 1.6.546 2.273a4.24 4.24 0 0 0 1.523 1.602c.644.394 1.378.6 2.204.6.614 0 1.186-.117 1.716-.352a4.39 4.39 0 0 0 1.386-.99 4.61 4.61 0 0 0 .92-1.432 4.42 4.42 0 0 0 .341-1.716 4.54 4.54 0 0 0-.568-2.239c-.372-.682-.883-1.227-1.535-1.636-.643-.417-1.382-.625-2.215-.625zm14.652 20.5c-.7 0-1.28-.242-1.773-.727a2.35 2.35 0 0 1-.727-1.773c-.008-.682.235-1.265.727-1.75s1.084-.727 1.773-.727a2.4 2.4 0 0 1 1.74.727 2.39 2.39 0 0 1 .761 1.75c-.008.462-.13.883-.364 1.26a2.6 2.6 0 0 1-.91.91 2.36 2.36 0 0 1-1.227.33zm7.022-.25v-3.045l8.08-7.92 1.932-2.08c.515-.606.902-1.193 1.16-1.76a4.34 4.34 0 0 0 .386-1.818c0-.735-.166-1.364-.5-1.886-.333-.53-.8-.94-1.375-1.227s-1.246-.432-1.988-.432c-.765 0-1.436.16-2.012.477a3.28 3.28 0 0 0-1.34 1.33c-.3.576-.466 1.26-.466 2.057H150.9c0-1.477.337-2.76 1.012-3.852s1.602-1.936 2.784-2.534c1.2-.6 2.553-.898 4.1-.898 1.56 0 2.93.292 4.113.875s2.1 1.383 2.75 2.398c.66 1.015 1 2.174 1 3.477a6.92 6.92 0 0 1-.5 2.568c-.333.84-.92 1.773-1.76 2.795-.834 1.022-2.004 2.26-3.512 3.716l-4 4.08v.16H167V111h-15.954zm20.195 0v-3.045l8.08-7.92 1.932-2.08c.515-.606.902-1.193 1.16-1.76a4.34 4.34 0 0 0 .386-1.818c0-.735-.166-1.364-.5-1.886-.333-.53-.8-.94-1.375-1.227s-1.246-.432-1.988-.432c-.765 0-1.436.16-2.012.477a3.28 3.28 0 0 0-1.34 1.33c-.3.576-.466 1.26-.466 2.057h-4.012c0-1.477.337-2.76 1.012-3.852s1.602-1.936 2.784-2.534c1.2-.6 2.553-.898 4.1-.898 1.56 0 2.93.292 4.113.875s2.1 1.383 2.75 2.398c.66 1.015 1 2.174 1 3.477a6.92 6.92 0 0 1-.5 2.568c-.333.84-.92 1.773-1.76 2.795-.834 1.022-2.004 2.26-3.512 3.716l-4 4.08v.16h10.136V111h-15.96z"/></g></g><defs><filter id="C" x="-78" y="315" width="559" height="604" filterUnits="userSpaceOnUse" class="D"><feFlood result="A" class="E"/><feColorMatrix in="SourceAlpha" values="0 0 0 0 0 0 0 0 0 0 0 0 0 0 0 0 0 0 127 0"/><feOffset dy="-2"/><feGaussianBlur stdDeviation="46"/><feColorMatrix values="0 0 0 0 0.572549 0 0 0 0 0.572549 0 0 0 0 0.572549 0 0 0 0.16 0"/><feBlend in2="A"/><feBlend in="SourceGraphic"/></filter><filter id="D" x="13" y="778" width="207" height="85" filterUnits="userSpaceOnUse" class="D"><feFlood result="A" class="E"/><feColorMatrix in="SourceAlpha" values="0 0 0 0 0 0 0 0 0 0 0 0 0 0 0 0 0 0 127 0"/><feMorphology radius="2" operator="dilate" in="SourceAlpha"/><feOffset dy="8"/><feGaussianBlur stdDeviation="12"/><feColorMatrix values="0 0 0 0 0.211765 0 0 0 0 0.231373 0 0 0 0 0.392157 0 0 0 0.08 0"/><feBlend in2="A"/><feBlend in="SourceGraphic"/></filter><filter id="E" x="184" y="778" width="207" height="85" filterUnits="userSpaceOnUse" class="D"><feFlood result="A" class="E"/><feColorMatrix in="SourceAlpha" values="0 0 0 0 0 0 0 0 0 0 0 0 0 0 0 0 0 0 127 0"/><feMorphology radius="2" operator="dilate" in="SourceAlpha"/><feOffset dy="8"/><feGaussianBlur stdDeviation="12"/><feColorMatrix values="0 0 0 0 0.211765 0 0 0 0 0.231373 0 0 0 0 0.392157 0 0 0 0.08 0"/><feBlend in2="A"/><feBlend in="SourceGraphic"/></filter><filter id="F" x="108" y="524" width="132" height="84" filterUnits="userSpaceOnUse" class="D"><feFlood result="A" class="E"/><feColorMatrix in="SourceAlpha" values="0 0 0 0 0 0 0 0 0 0 0 0 0 0 0 0 0 0 127 0"/><feMorphology radius="2" operator="dilate" in="SourceAlpha"/><feOffset dy="8"/><feGaussianBlur stdDeviation="12"/><feColorMatrix values="0 0 0 0 0.211765 0 0 0 0 0.231373 0 0 0 0 0.392157 0 0 0 0.08 0"/><feBlend in2="A"/><feBlend in="SourceGraphic"/></filter><filter id="G" x="42" y="478" width="72" height="48" filterUnits="userSpaceOnUse" class="D"><feFlood class="E"/><feBlend in="SourceGraphic"/><feGaussianBlur stdDeviation="6"/></filter><filter id="H" x="12" y="460" width="132" height="84" filterUnits="userSpaceOnUse" class="D"><feFlood result="A" class="E"/><feColorMatrix in="SourceAlpha" values="0 0 0 0 0 0 0 0 0 0 0 0 0 0 0 0 0 0 127 0"/><feMorphology radius="2" operator="dilate" in="SourceAlpha"/><feOffset dy="8"/><feGaussianBlur stdDeviation="12"/><feColorMatrix values="0 0 0 0 0.211765 0 0 0 0 0.231373 0 0 0 0 0.392157 0 0 0 0.08 0"/><feBlend in2="A"/><feBlend in="SourceGraphic"/></filter><filter id="I" x="-122" y="-119" width="647" height="416" filterUnits="userSpaceOnUse" class="D"><feFlood class="E"/><feGaussianBlur in="BackgroundImage" stdDeviation="80"/><feComposite in2="SourceAlpha" operator="in"/><feBlend in="SourceGraphic"/></filter><linearGradient id="J" x1="365" y1="593" x2="692" y2="801" xlink:href="#e"><stop stop-color="#e85442"/><stop offset="1" stop-color="#ffc500"/></linearGradient><linearGradient id="K" x1="38" y1="385" x2="365" y2="593" xlink:href="#e"><stop stop-color="#c69dff"/><stop offset="1" stop-color="#4f76ff"/></linearGradient><linearGradient id="L" x1="38" y1="153" x2="365" y2="361" xlink:href="#e"><stop stop-color="#c69dff"/><stop offset="1" stop-color="#4f76ff"/></linearGradient><linearGradient id="M" x1="262" y1="526" x2="328.61" y2="533.35" xlink:href="#e"><stop stop-color="#c69dff"/><stop offset="1" stop-color="#4f76ff"/></linearGradient><linearGradient id="N" x1="38" y1="526" x2="104.61" y2="533.35" xlink:href="#e"><stop stop-color="#c69dff"/><stop offset="1" stop-color="#4f76ff"/></linearGradient><linearGradient id="O" x1="94" y1="526" x2="160.61" y2="533.35" xlink:href="#e"><stop stop-color="#c69dff"/><stop offset="1" stop-color="#4f76ff"/></linearGradient><linearGradient id="P" x1="150" y1="702" x2="150.178" y2="705.462" xlink:href="#e"><stop stop-color="#c69dff"/><stop offset="1" stop-color="#4f76ff"/></linearGradient><linearGradient id="Q" x1="150" y1="526" x2="216.61" y2="533.35" xlink:href="#e"><stop stop-color="#c69dff"/><stop offset="1" stop-color="#4f76ff"/></linearGradient><linearGradient id="R" x1="206" y1="526" x2="272.61" y2="533.35" xlink:href="#e"><stop stop-color="#c69dff"/><stop offset="1" stop-color="#4f76ff"/></linearGradient><linearGradient id="S" x1="318" y1="526" x2="384.61" y2="533.35" xlink:href="#e"><stop stop-color="#c69dff"/><stop offset="1" stop-color="#4f76ff"/></linearGradient><linearGradient id="T" x1="39" y1="554" x2="174.571" y2="765.758" xlink:href="#e"><stop stop-color="#c69dff"/><stop offset="1" stop-color="#4f76ff"/></linearGradient><linearGradient id="U" x1="47" y1="554" x2="182.571" y2="765.758" xlink:href="#e"><stop stop-color="#c69dff"/><stop offset="1" stop-color="#4f76ff"/></linearGradient><linearGradient id="V" x1="169" y1="586" x2="181.07" y2="590.884" xlink:href="#e"><stop stop-color="#c69dff"/><stop offset="1" stop-color="#4f76ff"/></linearGradient><linearGradient id="W" x1="54" y1="490" x2="94.742" y2="522.969" xlink:href="#e"><stop stop-color="#c69dff"/><stop offset="1" stop-color="#4f76ff"/></linearGradient><linearGradient id="X" x1="38" y1="478" x2="93.541" y2="534.181" xlink:href="#e"><stop stop-color="#c69dff"/><stop offset="1" stop-color="#4f76ff"/></linearGradient><linearGradient id="Y" x1="389" y1="494" x2="314" y2="494" xlink:href="#e"><stop stop-color="#fff"/><stop offset="1" stop-color="#fff" stop-opacity="0"/></linearGradient><linearGradient id="Z" x1="319" y1="78" x2="328.656" y2="81.907" xlink:href="#e"><stop stop-color="#e85442"/><stop offset="1" stop-color="#ffc500"/></linearGradient><linearGradient id="a" x1="319" y1="92" x2="328.656" y2="95.907" xlink:href="#e"><stop stop-color="#e85442"/><stop offset="1" stop-color="#ffc500"/></linearGradient><linearGradient id="b" x1="333" y1="78" x2="342.656" y2="81.907" xlink:href="#e"><stop stop-color="#e85442"/><stop offset="1" stop-color="#ffc500"/></linearGradient><linearGradient id="c" x1="333" y1="92" x2="342.656" y2="95.907" xlink:href="#e"><stop stop-color="#e85442"/><stop offset="1" stop-color="#ffc500"/></linearGradient><clipPath id="d"><rect x="14" y="17" width="375" height="812" rx="10" class="B"/></clipPath><linearGradient id="e" gradientUnits="userSpaceOnUse"/></defs></svg>