<svg width="10" height="10" viewBox="0 0 10 10" fill="none" xmlns="http://www.w3.org/2000/svg">
<path fill-rule="evenodd" clip-rule="evenodd" d="M2.30037 0.884291C2.36605 0.848428 2.44018 0.830915 2.51496 0.833591C2.58974 0.836267 2.66243 0.859034 2.72537 0.899499L8.55871 4.6495C8.6174 4.68723 8.66568 4.73909 8.69912 4.80033C8.73255 4.86157 8.75007 4.93023 8.75007 5C8.75007 5.06977 8.73255 5.13843 8.69912 5.19967C8.66568 5.26091 8.6174 5.31277 8.55871 5.3505L2.72537 9.1005C2.66243 9.14097 2.58975 9.16374 2.51497 9.16642C2.44018 9.1691 2.36606 9.15159 2.30038 9.11573C2.2347 9.07987 2.17989 9.02699 2.1417 8.96264C2.10352 8.89828 2.08337 8.82483 2.08337 8.75V1.25C2.08337 1.17517 2.10352 1.10173 2.14171 1.03738C2.17989 0.973028 2.2347 0.920147 2.30037 0.884291V0.884291ZM2.91671 2.01321V7.98679L7.56283 5L2.91671 2.01321Z" fill="#4B8CD9"/>
</svg>
