<svg width="200" height="200" viewBox="0 0 200 200" fill="none" xmlns="http://www.w3.org/2000/svg">
<path d="M60.8726 80.5838L60.7392 80.6941L60.8292 80.842C63.2252 84.7784 68.4226 87.28 73.642 87.28C79.9233 87.28 85.266 83.5767 85.266 77.504C85.266 75.8351 84.8939 74.4993 84.2494 73.4194C83.6054 72.3401 82.6966 71.5283 81.6408 70.8959C79.6477 69.7021 77.1046 69.1346 74.7796 68.6157C74.6524 68.5873 74.5258 68.5591 74.4 68.5309C72.3522 68.0665 70.788 67.7044 69.7308 67.1375C69.2076 66.8569 68.8216 66.5324 68.565 66.1316C68.3093 65.7322 68.172 65.2412 68.172 64.61C68.172 63.482 68.6937 62.5316 69.608 61.8572C70.5263 61.1797 71.8466 60.778 73.432 60.778C76.8714 60.778 79.042 62.5297 80.6979 65.0964L80.8225 65.2895L80.9966 65.1395L84.9446 61.7375L85.076 61.6243L84.9825 61.4782C82.927 58.2666 78.8291 55.8 73.6 55.8C70.5174 55.8 67.751 56.7034 65.7511 58.328C63.748 59.9553 62.522 62.3005 62.522 65.156C62.522 68.1654 63.7755 70.0322 65.6129 71.2752C67.4327 72.5061 69.8205 73.1217 72.0828 73.6663C72.5152 73.7714 72.9335 73.87 73.3367 73.9649C75.0451 74.3674 76.4805 74.7055 77.5532 75.2022C78.2107 75.5067 78.7129 75.8631 79.0516 76.3147C79.3876 76.763 79.574 77.3204 79.574 78.05C79.574 79.4313 78.9674 80.4844 77.9526 81.1992C76.9305 81.9192 75.4839 82.302 73.81 82.302C70.445 82.302 67.3539 80.4565 65.2844 77.2281L65.1626 77.038L64.9886 77.1818L60.8726 80.5838Z" fill="white" stroke="white" stroke-width="0.4"/>
<path d="M75.4915 113.462V113.262H75.2915H69.9155H69.7155V113.462V143.618V143.818H69.9155H75.2915H75.4915V143.618V113.462Z" fill="white" stroke="white" stroke-width="0.4"/>
<path d="M126.791 87.818H126.934L126.98 87.6822L134.487 65.5218V87.618V87.818H134.687H139.685H139.885V87.618V57.462V57.262H139.685H132.461H132.317L132.271 57.3982L124.691 79.9347L117.11 57.3982L117.065 57.262H116.921H109.529H109.329V57.462V87.618V87.818H109.529H114.527H114.727V87.618V65.5218L122.233 87.6822L122.279 87.818H122.423H126.791Z" fill="white" stroke="white" stroke-width="0.4"/>
<path d="M136.484 118.366H136.684V118.166V113.462V113.262H136.484H111.704H111.504V113.462V118.166V118.366H111.704H121.206V143.618V143.818H121.406H126.782H126.982V143.618V118.366H136.484Z" fill="white" stroke="white" stroke-width="0.4"/>
<rect x="42" y="33" width="117" height="134" stroke="white" stroke-width="6"/>
</svg>
