<svg width="200" height="200" viewBox="0 0 200 200" fill="none" xmlns="http://www.w3.org/2000/svg">
<path d="M61 80.738C63.352 84.602 68.476 87.08 73.642 87.08C79.858 87.08 85.066 83.426 85.066 77.504C85.066 70.952 79.228 69.818 74.356 68.726C70.282 67.802 67.972 67.256 67.972 64.61C67.972 62.216 70.198 60.578 73.432 60.578C76.96 60.578 79.186 62.384 80.866 64.988L84.814 61.586C82.798 58.436 78.766 56 73.6 56C67.51 56 62.722 59.57 62.722 65.156C62.722 71.036 67.594 72.38 72.13 73.472C76.624 74.564 79.774 74.984 79.774 78.05C79.774 80.948 77.212 82.502 73.81 82.502C70.366 82.502 67.216 80.612 65.116 77.336L61 80.738Z" fill="#383838"/>
<path d="M75.2915 113.462H69.9155V143.618H75.2915V113.462Z" fill="#383838"/>
<path d="M126.791 87.618L134.687 64.308V87.618H139.685V57.462H132.461L124.691 80.562L116.921 57.462H109.529V87.618H114.527V64.308L122.423 87.618H126.791Z" fill="#383838"/>
<path d="M136.484 118.166V113.462H111.704V118.166H121.406V143.618H126.782V118.166H136.484Z" fill="#383838"/>
<rect x="42" y="33" width="117" height="134" stroke="#4299E1" stroke-width="6"/>
</svg>
