<svg width="200" height="200" viewBox="0 0 200 200" fill="none" xmlns="http://www.w3.org/2000/svg">
<path d="M73.7377 86.546C80.1637 86.546 84.1957 82.682 84.1957 77.81C84.1957 73.232 81.4237 71.132 77.8537 69.578L73.4437 67.688C71.0497 66.68 68.3617 65.546 68.3617 62.564C68.3617 59.792 70.6297 58.028 74.1157 58.028C76.9717 58.028 79.2397 59.162 81.1297 60.926L83.1877 58.448C81.0037 56.18 77.7697 54.626 74.1157 54.626C68.5297 54.626 64.4137 58.07 64.4137 62.816C64.4137 67.31 67.8157 69.494 70.6717 70.712L75.1237 72.644C78.0217 73.946 80.2477 74.954 80.2477 78.104C80.2477 81.128 77.8117 83.144 73.7797 83.144C70.5877 83.144 67.4797 81.632 65.2957 79.322L62.9437 81.968C65.6317 84.782 69.3697 86.546 73.7377 86.546Z" fill="#383838"/>
<path d="M70.5477 143H74.4537V112.172H70.5477V143Z" fill="#383838"/>
<path d="M111.658 87H115.186V69.948C115.186 67.302 114.892 63.564 114.724 60.876H114.892L117.328 67.89L123.166 83.892H125.77L131.608 67.89L134.044 60.876H134.212C134.002 63.564 133.708 67.302 133.708 69.948V87H137.362V56.172H132.658L126.778 72.678C126.064 74.82 125.392 76.962 124.678 79.104H124.468C123.712 76.962 122.998 74.82 122.284 72.678L116.362 56.172H111.658V87Z" fill="#383838"/>
<path d="M122.055 143H125.961V115.49H135.285V112.172H112.731V115.49H122.055V143Z" fill="#383838"/>
<rect x="42" y="33" width="117" height="134" stroke="#4299E1" stroke-width="6"/>
</svg>
