<svg width="188" height="70" viewBox="0 0 188 70" fill="none" xmlns="http://www.w3.org/2000/svg">
<path d="M0 60.384C4.608 66.624 14.208 69.984 23.328 69.984C35.424 69.984 45.216 63.456 45.216 52.896C45.216 41.472 34.752 39.456 25.92 37.632C19.68 36.384 16.32 35.808 16.32 32.544C16.32 29.76 19.104 27.936 23.328 27.936C28.608 27.936 33.504 30.336 36.864 34.656L44.544 26.208C40.608 21.12 32.64 17.472 23.712 17.472C11.616 17.472 3.072 24.192 3.072 33.888C3.072 44.736 12.096 46.848 20.256 48.48C28.32 50.016 32.064 50.496 32.064 54.336C32.064 57.984 28.128 59.52 23.616 59.52C17.952 59.52 11.808 56.544 8.352 51.84L0 60.384Z" fill="#0A2540"/>
<path d="M66.5258 39.744C66.5258 33.12 71.0378 29.76 75.4538 29.76C81.0218 29.76 83.1338 33.792 83.1338 39.456V68.928H96.5738V39.744C96.5738 33.12 101.086 29.76 105.502 29.76C111.07 29.76 113.182 33.792 113.182 39.456V68.928H126.622V35.616C126.622 24.672 119.902 17.472 109.534 17.472C101.758 17.472 96.9578 21.216 93.8858 24.384C91.1018 20.064 86.3978 17.472 80.2538 17.472C73.7258 17.472 69.2138 20.352 66.5258 23.616V18.432H53.0858V68.928H66.5258V39.744Z" fill="#0A2540"/>
<path d="M137.269 12.48H150.997V0L143.924 6.42801L137.269 12.48ZM150.901 18.432H137.461V68.928H150.901V18.432Z" fill="#0A2540"/>
<path d="M163.273 55.776C163.273 66.144 168.649 69.504 178.826 69.504C182.186 69.504 185.066 69.216 187.465 68.736V57.6C185.738 57.792 184.777 57.888 182.857 57.888C178.921 57.888 176.521 57.312 176.521 52.992V29.664H186.794V18.432H176.521V4.032H163.273V18.432H156.553V29.664H163.273V55.776Z" fill="#0A2540"/>
</svg>
