<svg width="189" height="71" viewBox="0 0 189 71" fill="none" xmlns="http://www.w3.org/2000/svg">
<path d="M0.575928 60.456C5.18393 66.696 14.7839 70.056 23.9039 70.056C35.9999 70.056 45.7919 63.528 45.7919 52.968C45.7919 41.544 35.3279 39.528 26.4959 37.704C20.2559 36.456 16.8959 35.88 16.8959 32.616C16.8959 29.832 19.6799 28.008 23.9039 28.008C29.1839 28.008 34.0799 30.408 37.4399 34.728L45.1199 26.28C41.1839 21.192 33.2159 17.544 24.2879 17.544C12.1919 17.544 3.64793 24.264 3.64793 33.96C3.64793 44.808 12.6719 46.92 20.8319 48.552C28.8959 50.088 32.6399 50.568 32.6399 54.408C32.6399 58.056 28.7039 59.592 24.1919 59.592C18.5279 59.592 12.3839 56.616 8.92793 51.912L0.575928 60.456Z" fill="white"/>
<path d="M67.1017 39.816C67.1017 33.192 71.6137 29.832 76.0297 29.832C81.5977 29.832 83.7097 33.864 83.7097 39.528V69H97.1497V39.816C97.1497 33.192 101.662 29.832 106.078 29.832C111.646 29.832 113.758 33.864 113.758 39.528V69H127.198V35.688C127.198 24.744 120.478 17.544 110.11 17.544C102.334 17.544 97.5337 21.288 94.4617 24.456C91.6777 20.136 86.9737 17.544 80.8297 17.544C74.3017 17.544 69.7897 20.424 67.1017 23.688V18.504H53.6617V69H67.1017V39.816Z" fill="white"/>
<path d="M137.845 12.552H151.573V0.071991L144.5 6.5L137.845 12.552ZM151.477 18.504H138.037V69H151.477V18.504Z" fill="white"/>
<path d="M163.849 55.848C163.849 66.216 169.225 69.576 179.401 69.576C182.761 69.576 185.641 69.288 188.041 68.808V57.672C186.313 57.864 185.353 57.96 183.433 57.96C179.497 57.96 177.097 57.384 177.097 53.064V29.736H187.369V18.504H177.097V4.10399H163.849V18.504H157.129V29.736H163.849V55.848Z" fill="white"/>
</svg>
