<?xml version="1.0" standalone="no"?>
<!DOCTYPE svg PUBLIC "-//W3C//DTD SVG 20010904//EN"
 "http://www.w3.org/TR/2001/REC-SVG-20010904/DTD/svg10.dtd">
<svg version="1.0" xmlns="http://www.w3.org/2000/svg"
 width="1182.000000pt" height="1280.000000pt" viewBox="0 0 1182.000000 1280.000000"
 preserveAspectRatio="xMidYMid meet">
<metadata>
Created by potrace 1.15, written by Peter Selinger 2001-2017
</metadata>
<g transform="translate(0.000000,1280.000000) scale(0.100000,-0.100000)"
fill="#000000" stroke="none">
<path d="M5630 12278 c-150 -282 -386 -722 -522 -978 -271 -506 -290 -534
-386 -570 -134 -50 -200 -28 -707 235 -227 118 -415 215 -417 215 -2 0 10 -78
28 -172 51 -267 428 -2277 490 -2603 58 -313 65 -403 38 -495 -32 -107 -122
-162 -228 -140 -115 24 -113 22 -840 838 -373 419 -681 761 -683 759 -2 -2
-53 -177 -113 -388 -65 -225 -119 -397 -133 -416 -31 -47 -99 -90 -161 -103
-63 -13 -7 -23 -994 185 -409 86 -745 155 -747 153 -2 -2 21 -94 51 -203 408
-1487 441 -1609 454 -1689 20 -123 -14 -194 -115 -244 -22 -11 -173 -82 -335
-158 -162 -76 -298 -140 -301 -143 -4 -3 632 -526 1413 -1161 781 -635 1438
-1174 1460 -1198 22 -24 52 -69 66 -100 23 -48 27 -71 27 -142 -1 -77 -8 -108
-79 -340 -122 -397 -175 -574 -173 -576 1 -1 639 72 1417 162 778 90 1430 162
1448 159 18 -4 47 -19 65 -34 28 -26 32 -35 35 -97 2 -38 -6 -226 -17 -419
-23 -383 -65 -1112 -111 -1920 -16 -286 -32 -559 -36 -607 l-6 -88 392 0 392
0 -6 87 c-4 49 -20 324 -36 613 -47 825 -88 1535 -111 1915 -11 193 -19 381
-17 419 3 62 7 71 35 97 18 15 47 30 65 34 18 3 670 -69 1448 -159 778 -90
1416 -163 1417 -162 2 2 -51 179 -173 576 -71 232 -78 263 -79 340 0 71 4 94
27 142 14 31 44 76 66 100 22 24 679 563 1460 1198 781 635 1417 1158 1413
1161 -3 3 -139 67 -301 143 -162 76 -313 147 -335 158 -101 50 -135 121 -115
244 13 80 46 202 454 1689 30 109 53 201 51 203 -2 2 -338 -67 -747 -153 -987
-208 -931 -198 -994 -185 -62 13 -130 56 -161 103 -14 19 -68 191 -133 416
-60 211 -111 386 -113 388 -2 2 -310 -340 -683 -759 -727 -816 -725 -814 -840
-838 -71 -15 -127 1 -175 49 -73 73 -86 194 -45 422 20 108 381 2033 519 2762
18 97 31 177 29 177 -2 0 -190 -97 -417 -215 -451 -234 -519 -261 -630 -253
-72 6 -126 32 -177 85 -32 32 -397 706 -1038 1911 -24 45 -47 82 -50 82 -3 0
-129 -231 -280 -512z"/>
</g>
</svg>
