<svg width="200" height="200" viewBox="0 0 200 200" fill="none" xmlns="http://www.w3.org/2000/svg">
<path d="M55.2281 101.578L56.0264 99.7442L56.0159 99.7397L55.2281 101.578ZM50.8181 99.688L51.606 97.8497L51.5942 97.8447L50.8181 99.688ZM58.5041 92.926L57.1395 94.3881L58.6887 95.8341L60.0427 94.2038L58.5041 92.926ZM60.5621 90.448L62.1007 91.7258L63.2437 90.3495L62.0027 89.0607L60.5621 90.448ZM48.0461 102.712L48.8423 100.877L48.8307 100.872L48.0461 102.712ZM52.4981 104.644L53.3177 102.82L53.306 102.814L53.2943 102.809L52.4981 104.644ZM42.6701 111.322L44.1234 109.948L42.6246 108.363L41.1753 109.993L42.6701 111.322ZM40.3181 113.968L38.8233 112.639L37.5988 114.017L38.8719 115.349L40.3181 113.968ZM51.1121 120.546C58.3711 120.546 63.5701 116.04 63.5701 109.81H59.5701C59.5701 113.324 56.7051 116.546 51.1121 116.546V120.546ZM63.5701 109.81C63.5701 107.067 62.7206 104.918 61.2377 103.237C59.8103 101.619 57.9075 100.563 56.0263 99.7442L54.4299 103.412C56.1187 104.147 57.3869 104.918 58.238 105.883C59.0336 106.785 59.5701 107.975 59.5701 109.81H63.5701ZM56.0159 99.7397L51.6059 97.8497L50.0303 101.526L54.4403 103.416L56.0159 99.7397ZM51.5942 97.8447C50.3368 97.3153 49.3453 96.8816 48.6339 96.3086C48.0268 95.8197 47.7361 95.3243 47.7361 94.564H43.7361C43.7361 96.7857 44.7894 98.3483 46.1248 99.4239C47.3559 100.415 48.9054 101.053 50.042 101.531L51.5942 97.8447ZM47.7361 94.564C47.7361 93.7796 48.0308 93.2302 48.5411 92.8294C49.0997 92.3907 50.0623 92.028 51.4901 92.028V88.028C49.4319 88.028 47.5175 88.5473 46.0706 89.6836C44.5754 90.8578 43.7361 92.5764 43.7361 94.564H47.7361ZM51.4901 92.028C53.7454 92.028 55.5447 92.8997 57.1395 94.3881L59.8687 91.4639C57.6835 89.4243 54.9468 88.028 51.4901 88.028V92.028ZM60.0427 94.2038L62.1007 91.7258L59.0235 89.1702L56.9655 91.6482L60.0427 94.2038ZM62.0027 89.0607C59.4615 86.4218 55.7155 84.626 51.4901 84.626V88.626C54.5727 88.626 57.2947 89.9382 59.1215 91.8353L62.0027 89.0607ZM51.4901 84.626C45.1358 84.626 39.7881 88.6568 39.7881 94.816H43.7881C43.7881 91.4832 46.6724 88.626 51.4901 88.626V84.626ZM39.7881 94.816C39.7881 100.606 44.2677 103.275 47.2615 104.552L48.8307 100.872C46.1125 99.7131 43.7881 98.014 43.7881 94.816H39.7881ZM47.2499 104.547L51.7019 106.479L53.2943 102.809L48.8423 100.877L47.2499 104.547ZM51.6785 106.468C53.2102 107.156 54.1798 107.614 54.8256 108.182C55.3188 108.616 55.6221 109.112 55.6221 110.104H59.6221C59.6221 107.946 58.8124 106.363 57.4681 105.18C56.2764 104.131 54.684 103.434 53.3177 102.82L51.6785 106.468ZM55.6221 110.104C55.6221 111.027 55.2751 111.701 54.6579 112.191C53.9941 112.717 52.8586 113.144 51.1541 113.144V117.144C53.4816 117.144 55.5801 116.563 57.1423 115.325C58.7511 114.051 59.6221 112.205 59.6221 110.104H55.6221ZM51.1541 113.144C48.5812 113.144 45.98 111.912 44.1234 109.948L41.2168 112.696C43.7282 115.352 47.343 117.144 51.1541 117.144V113.144ZM41.1753 109.993L38.8233 112.639L41.8129 115.297L44.1649 112.651L41.1753 109.993ZM38.8719 115.349C41.9224 118.543 46.1766 120.546 51.1121 120.546V116.546C47.3116 116.546 44.0898 115.021 41.7643 112.587L38.8719 115.349ZM76.8446 118H74.8446V120H76.8446V118ZM80.3726 118V120H82.3726V118H80.3726ZM79.9106 91.876V89.876H77.7817L77.9145 92.0008L79.9106 91.876ZM80.0786 91.876L81.9679 91.2198L81.5012 89.876H80.0786V91.876ZM82.5146 98.89L80.6253 99.5462L80.6305 99.5609L80.6358 99.5755L82.5146 98.89ZM88.3526 114.892L86.4738 115.577L86.9534 116.892H88.3526V114.892ZM90.9566 114.892V116.892H92.3559L92.8355 115.577L90.9566 114.892ZM96.7946 98.89L98.6735 99.5755L98.6788 99.5609L98.6839 99.5462L96.7946 98.89ZM99.2306 91.876V89.876H97.8081L97.3413 91.2198L99.2306 91.876ZM99.3986 91.876L101.393 92.0318L101.561 89.876H99.3986V91.876ZM98.8946 118H96.8946V120H98.8946V118ZM102.549 118V120H104.549V118H102.549ZM102.549 87.172H104.549V85.172H102.549V87.172ZM97.8446 87.172V85.172H96.434L95.9606 86.5008L97.8446 87.172ZM91.9646 103.678L90.0806 103.007L90.0738 103.026L90.0673 103.046L91.9646 103.678ZM89.8646 110.104V112.104H91.3062L91.762 110.736L89.8646 110.104ZM89.6546 110.104L87.7687 110.77L88.2396 112.104H89.6546V110.104ZM87.4706 103.678L89.368 103.046L89.3608 103.024L89.3532 103.003L87.4706 103.678ZM81.5486 87.172L83.4312 86.4966L82.9559 85.172H81.5486V87.172ZM76.8446 87.172V85.172H74.8446V87.172H76.8446ZM76.8446 120H80.3726V116H76.8446V120ZM82.3726 118V100.948H78.3726V118H82.3726ZM82.3726 100.948C82.3726 98.2193 82.0707 94.3741 81.9068 91.7512L77.9145 92.0008C78.0866 94.7539 78.3726 98.3847 78.3726 100.948H82.3726ZM79.9106 93.876H80.0786V89.876H79.9106V93.876ZM78.1893 92.5322L80.6253 99.5462L84.4039 98.2338L81.9679 91.2198L78.1893 92.5322ZM80.6358 99.5755L86.4738 115.577L90.2315 114.207L84.3935 98.2045L80.6358 99.5755ZM88.3526 116.892H90.9566V112.892H88.3526V116.892ZM92.8355 115.577L98.6735 99.5755L94.9158 98.2045L89.0778 114.207L92.8355 115.577ZM98.6839 99.5462L101.12 92.5322L97.3413 91.2198L94.9053 98.2338L98.6839 99.5462ZM99.2306 93.876H99.3986V89.876H99.2306V93.876ZM97.4047 91.7202C97.1969 94.3798 96.8946 98.2065 96.8946 100.948H100.895C100.895 98.3975 101.18 94.7482 101.393 92.0318L97.4047 91.7202ZM96.8946 100.948V118H100.895V100.948H96.8946ZM98.8946 120H102.549V116H98.8946V120ZM104.549 118V87.172H100.549V118H104.549ZM102.549 85.172H97.8446V89.172H102.549V85.172ZM95.9606 86.5008L90.0806 103.007L93.8487 104.349L99.7287 87.8432L95.9606 86.5008ZM90.0673 103.046C89.707 104.126 89.3578 105.206 89.0118 106.275C88.6648 107.348 88.321 108.41 87.9673 109.472L91.762 110.736C92.1223 109.656 92.4715 108.576 92.8175 107.507C93.1645 106.434 93.5083 105.372 93.862 104.31L90.0673 103.046ZM89.8646 108.104H89.6546V112.104H89.8646V108.104ZM91.5406 109.438C90.7914 107.316 90.0829 105.19 89.368 103.046L85.5733 104.31C86.2864 106.45 87.0059 108.608 87.7687 110.77L91.5406 109.438ZM89.3532 103.003L83.4312 86.4966L79.6661 87.8474L85.5881 104.353L89.3532 103.003ZM81.5486 85.172H76.8446V89.172H81.5486V85.172ZM74.8446 87.172V118H78.8446V87.172H74.8446ZM120.169 118H118.169V120H120.169V118ZM124.075 118V120H126.075V118H124.075ZM124.075 87.172H126.075V85.172H124.075V87.172ZM120.169 87.172V85.172H118.169V87.172H120.169ZM120.169 120H124.075V116H120.169V120ZM126.075 118V87.172H122.075V118H126.075ZM124.075 85.172H120.169V89.172H124.075V85.172ZM118.169 87.172V118H122.169V87.172H118.169ZM148.139 118H146.139V120H148.139V118ZM152.045 118V120H154.045V118H152.045ZM152.045 90.49V88.49H150.045V90.49H152.045ZM161.369 90.49V92.49H163.369V90.49H161.369ZM161.369 87.172H163.369V85.172H161.369V87.172ZM138.815 87.172V85.172H136.815V87.172H138.815ZM138.815 90.49H136.815V92.49H138.815V90.49ZM148.139 90.49H150.139V88.49H148.139V90.49ZM148.139 120H152.045V116H148.139V120ZM154.045 118V90.49H150.045V118H154.045ZM152.045 92.49H161.369V88.49H152.045V92.49ZM163.369 90.49V87.172H159.369V90.49H163.369ZM161.369 85.172H138.815V89.172H161.369V85.172ZM136.815 87.172V90.49H140.815V87.172H136.815ZM138.815 92.49H148.139V88.49H138.815V92.49ZM146.139 90.49V118H150.139V90.49H146.139Z" fill="white"/>
<rect x="4.5" y="59.5" width="191" height="84" stroke="#3EFFF3" stroke-width="3"/>
</svg>
